<svg xmlns="http://www.w3.org/2000/svg" xmlns:xlink="http://www.w3.org/1999/xlink" version="1.1" x="0px" y="0px" viewBox="0 0 32 40" style="enable-background:new 0 0 32 32;" xml:space="preserve"><style type="text/css">
	.st0{display:none;}
	.st1{display:inline;}
</style><g><path d="M13.104,6.866c0.176,0.176,0.406,0.264,0.637,0.264s0.46-0.088,0.636-0.263c0.352-0.352,0.352-0.921,0-1.273l-1.248-1.249   c-0.352-0.352-0.921-0.351-1.273,0c-0.352,0.352-0.352,0.921,0,1.273L13.104,6.866z"/><path d="M26.407,17.623c-0.352-0.351-0.921-0.351-1.273,0c-0.351,0.352-0.351,0.921,0,1.273l1.249,1.248   c0.176,0.175,0.406,0.263,0.636,0.263s0.461-0.088,0.637-0.264c0.351-0.352,0.351-0.921,0-1.273L26.407,17.623z"/><path d="M25.771,7.129c0.23,0,0.46-0.088,0.636-0.264l1.249-1.249c0.352-0.351,0.352-0.921,0-1.272   c-0.352-0.352-0.921-0.352-1.272,0l-1.249,1.249c-0.352,0.351-0.352,0.921,0,1.272C25.31,7.042,25.54,7.129,25.771,7.129z"/><path d="M30.027,11.344h-1.766c-0.497,0-0.9,0.403-0.9,0.9s0.403,0.9,0.9,0.9h1.766c0.497,0,0.9-0.403,0.9-0.9   S30.524,11.344,30.027,11.344z"/><path d="M19.756,4.638c0.497,0,0.9-0.403,0.9-0.9V1.973c0-0.497-0.403-0.9-0.9-0.9s-0.9,0.403-0.9,0.9v1.766   C18.856,4.235,19.259,4.638,19.756,4.638z"/><path d="M21.806,8.071c-1.096-1.096-3.005-1.097-4.101,0L1.922,23.854c-0.548,0.548-0.85,1.276-0.85,2.051s0.302,1.503,0.85,2.05   l2.123,2.123c0.547,0.548,1.275,0.85,2.05,0.85s1.503-0.302,2.05-0.85l15.783-15.783c0.548-0.548,0.85-1.276,0.85-2.05   c0-0.775-0.302-1.503-0.85-2.051L21.806,8.071z M6.873,28.805c-0.415,0.415-1.14,0.415-1.555,0h0l-2.123-2.123   c-0.208-0.208-0.322-0.483-0.322-0.777s0.115-0.57,0.322-0.778l11.61-11.61l3.679,3.679L6.873,28.805z M22.656,13.022l-2.9,2.9   l-3.679-3.679l2.9-2.9c0.215-0.214,0.497-0.322,0.778-0.322c0.282,0,0.563,0.107,0.778,0.322l2.123,2.123   C23.085,11.896,23.085,12.593,22.656,13.022z"/></g><text x="0" y="47" fill="#000000" font-size="5px" font-weight="bold" font-family="'Helvetica Neue', Helvetica, Arial-Unicode, Arial, Sans-serif">Created by Rikas Dzihab</text><text x="0" y="52" fill="#000000" font-size="5px" font-weight="bold" font-family="'Helvetica Neue', Helvetica, Arial-Unicode, Arial, Sans-serif">from the Noun Project</text></svg>

