<svg xmlns="http://www.w3.org/2000/svg" version="1.1" viewBox="-5.0 -10.0 110.0 135.0">
 <path d="m42.414 19.301c6.7266-4.7188 15.586 0.33594 15.586 8.3125v44.773c0 7.9766-8.8594 13.035-15.586 8.3125l-18.605-13.051h-8.8672c-5.5742 0-9.9414-4.6055-9.9414-10.102v-15.094c0-5.4961 4.3672-10.102 9.9414-10.102h8.8672zm8.5859 8.3125c0-2.6406-2.7461-3.8594-4.5664-2.582l-20.414 14.32h-11.078c-1.543 0-2.9414 1.3047-2.9414 3.1016v15.094c0 1.7969 1.3984 3.1016 2.9414 3.1016h11.078l20.414 14.32c1.8203 1.2773 4.5664 0.058594 4.5664-2.582z" fill-rule="evenodd"/>
 <path d="m79.074 22.477c1.3906-1.3398 3.6094-1.2969 4.9492 0.097657 6.793 7.0625 10.977 16.754 10.977 27.426s-4.1836 20.363-10.977 27.426c-1.3398 1.3945-3.5586 1.4375-4.9492 0.097657-1.3945-1.3398-1.4375-3.5586-0.097657-4.9492 5.5742-5.793 9.0234-13.758 9.0234-22.574s-3.4492-16.781-9.0234-22.574c-1.3398-1.3906-1.2969-3.6094 0.097657-4.9492z"/>
 <path d="m70.098 31.656c-1.293-1.4375-3.5078-1.5508-4.9414-0.25391-1.4375 1.293-1.5508 3.5078-0.25391 4.9414 3.125 3.4648 5.0977 8.2812 5.0977 13.656s-1.9727 10.191-5.0977 13.656c-1.2969 1.4336-1.1836 3.6484 0.25391 4.9414 1.4336 1.2969 3.6484 1.1836 4.9414-0.25391 4.2969-4.7617 6.9023-11.25 6.9023-18.344s-2.6055-13.582-6.9023-18.344z"/>
<text x="0.0" y="117.5" font-size="5.0" font-weight="bold" font-family="Arbeit Regular, Helvetica, Arial-Unicode, Arial, Sans-serif" fill="#000000">Created by Styfico</text><text x="0.0" y="122.5" font-size="5.0" font-weight="bold" font-family="Arbeit Regular, Helvetica, Arial-Unicode, Arial, Sans-serif" fill="#000000">from Noun Project</text></svg>