<svg xmlns="http://www.w3.org/2000/svg" xmlns:xlink="http://www.w3.org/1999/xlink" version="1.0" x="0px" y="0px" viewBox="0 0 200 250" style="enable-background:new 0 0 200 200;" xml:space="preserve"><g><path d="M91.3,63.5l19.5-18.4c2.4-2.3,2.5-6.1,0.2-8.5L92.6,17.2c-2.3-2.4-6.1-2.5-8.5-0.2c-2.4,2.3-2.5,6.1-0.2,8.5l8.3,8.8   C59.1,36.9,33,64.7,33,98.5c0,25.3,14.9,48.3,37.9,58.8c0.8,0.4,1.6,0.5,2.5,0.5c2.3,0,4.5-1.3,5.5-3.5c1.4-3,0-6.6-3-7.9   C57.1,137.8,45,119.1,45,98.5C45,71.4,65.7,49,92.1,46.3l-9,8.5c-2.4,2.3-2.5,6.1-0.2,8.5c1.2,1.2,2.8,1.9,4.4,1.9   C88.7,65.2,90.2,64.6,91.3,63.5z"/><path d="M162,98.5c0-22.9-12.4-44.3-32.2-55.8c-2.9-1.7-6.5-0.7-8.2,2.2c-1.7,2.9-0.7,6.5,2.2,8.2c16.2,9.4,26.3,26.8,26.3,45.5   c0,25.8-18.8,47.4-43.4,51.7l9.3-9c2.4-2.3,2.4-6.1,0.1-8.5c-2.3-2.4-6.1-2.4-8.5-0.1l-19.2,18.6c-2.4,2.3-2.4,6.1-0.1,8.5   l18.6,19.2c1.2,1.2,2.7,1.8,4.3,1.8c1.5,0,3-0.6,4.2-1.7c2.4-2.3,2.4-6.1,0.1-8.5l-8-8.3C138.3,157.4,162,130.7,162,98.5z"/></g><text x="0" y="215" fill="#000000" font-size="5px" font-weight="bold" font-family="'Helvetica Neue', Helvetica, Arial-Unicode, Arial, Sans-serif">Created by Nick Bluth</text><text x="0" y="220" fill="#000000" font-size="5px" font-weight="bold" font-family="'Helvetica Neue', Helvetica, Arial-Unicode, Arial, Sans-serif">from the Noun Project</text></svg>