<!-- <svg xmlns="http://www.w3.org/2000/svg" xmlns:xlink="http://www.w3.org/1999/xlink" xmlns:serif="http://www.serif.com/" viewBox="0 0 32 40" version="1.1" xml:space="preserve" style="" x="0px" y="0px" fill-rule="evenodd" clip-rule="evenodd" stroke-linejoin="round" stroke-miterlimit="2"><path d="M14.5,14.501l-10.502,0c-0.828,0 -1.5,0.673 -1.5,1.5c0,0.828 0.672,1.5 1.5,1.5l10.502,0l-0.001,10.502c0,0.828 0.672,1.5 1.5,1.501c0.828,-0 1.5,-0.673 1.5,-1.5l0.001,-10.503l10.502,0c0.828,0 1.5,-0.672 1.5,-1.5c0,-0.827 -0.672,-1.5 -1.5,-1.5l-10.502,0l0.001,-10.501c-0,-0.828 -0.672,-1.501 -1.5,-1.501c-0.828,0 -1.5,0.672 -1.5,1.5l-0.001,10.502Z"/><text x="0" y="47" fill="#000000" font-size="5px" font-weight="bold" font-family="'Helvetica Neue', Helvetica, Arial-Unicode, Arial, Sans-serif">Created by erix subyarko</text><text x="0" y="52" fill="#000000" font-size="5px" font-weight="bold" font-family="'Helvetica Neue', Helvetica, Arial-Unicode, Arial, Sans-serif">from the Noun Project</text></svg> -->

        <!-- <svg xmlns="http://www.w3.org/2000/svg" viewBox="0 0 32 40" version="1.1" ><path d="M14.5,14.501l-10.502,0c-0.828,0 -1.5,0.673 -1.5,1.5c0,0.828 0.672,1.5 1.5,1.5l10.502,0l-0.001,10.502c0,0.828 0.672,1.5 1.5,1.501c0.828,-0 1.5,-0.673 1.5,-1.5l0.001,-10.503l10.502,0c0.828,0 1.5,-0.672 1.5,-1.5c0,-0.827 -0.672,-1.5 -1.5,-1.5l-10.502,0l0.001,-10.501c-0,-0.828 -0.672,-1.501 -1.5,-1.501c-0.828,0 -1.5,0.672 -1.5,1.5l-0.001,10.502Z"/><text x="0" y="47" fill="#000000" font-size="5px" font-weight="bold" font-family="'Helvetica Neue', Helvetica, Arial-Unicode, Arial, Sans-serif">Created by erix subyarko</text><text x="0" y="52" fill="#000000" font-size="5px" font-weight="bold" font-family="'Helvetica Neue', Helvetica, Arial-Unicode, Arial, Sans-serif">from the Noun Project</text></svg> -->

<!-- 
<svg xmlns="http://www.w3.org/2000/svg" viewBox="0 0 32 40">
  <path d="M14.5,14.501l-10.502,0c-0.828,0 -1.5,0.673 -1.5,1.5c0,0.828 0.672,1.5 1.5,1.5l10.502,0l-0.001,10.502c0,0.828 0.672,1.5 1.5,1.501c0.828,-0 1.5,-0.673 1.5,-1.5l0.001,-10.503l10.502,0c0.828,0 1.5,-0.672 1.5,-1.5c0,-0.827 -0.672,-1.5 -1.5,-1.5l-10.502,0l0.001,-10.501c-0,-0.828 -0.672,-1.501 -1.5,-1.501c-0.828,0 -1.5,0.672 -1.5,1.5l-0.001,10.502Z"/>
</svg> -->

<!-- <svg xmlns="http://www.w3.org/2000/svg" viewBox="0 0 32 40" fill="none" stroke="currentColor" stroke-width="2" stroke-linecap="round" stroke-linejoin="round">
  <path d="M14.5 14.5H4a1.5 1.5 0 0 0 0 3h10.5V28a1.5 1.5 0 0 0 3 0V17.5H28a1.5 1.5 0 0 0 0-3H17.5V4a1.5 1.5 0 0 0-3 0v10.5z"/>
</svg> -->

<svg xmlns="http://www.w3.org/2000/svg" fill="none" stroke="currentColor" stroke-linecap="round" stroke-linejoin="round" stroke-width="2" viewBox="0 0 32 40"><path d="M14.5 14.5H4a1.5 1.5 0 0 0 0 3h10.5V28a1.5 1.5 0 0 0 3 0V17.5H28a1.5 1.5 0 0 0 0-3H17.5V4a1.5 1.5 0 0 0-3 0z"/></svg>