<svg xmlns="http://www.w3.org/2000/svg" xmlns:xlink="http://www.w3.org/1999/xlink" version="1.1" x="0px" y="0px" viewBox="0 0 1024 1280" style="enable-background:new 0 0 1024 1024;" xml:space="preserve"><g><g><g><path d="M716.1,136.5c0,27.7,0,55.3,0,83c0,41.2,0,82.4,0,123.6c0,17,0.1,33.9-2.2,50.8c0.4-2.7,0.7-5.3,1.1-8     c-2.8,20-8.1,39.5-15.8,58.2c1-2.4,2-4.8,3-7.2c-6.2,14.7-13.8,28.8-22.9,42c-2,2.9-4,5.7-6.1,8.5c-3.1,4.1,5-6.3,0.1-0.2     c-0.9,1.2-1.9,2.3-2.8,3.5c-4.8,5.7-9.8,11.2-15.1,16.4c-5.3,5.2-10.8,10.2-16.6,14.9c-1.2,0.9-2.4,1.8-3.5,2.8     c7.6-6.4,2-1.5,0.1-0.2c-2.8,2.1-5.7,4.1-8.6,6c-12.5,8.4-25.8,15.4-39.6,21.3c2.4-1,4.8-2,7.2-3c-18.7,7.8-38.3,13.1-58.3,15.9     c2.7-0.4,5.3-0.7,8-1.1c-21.3,2.8-42.7,2.8-64,0c2.7,0.4,5.3,0.7,8,1.1c-20-2.8-39.6-8.1-58.2-15.9c2.4,1,4.8,2,7.2,3     c-13.6-5.7-26.6-12.6-38.9-20.8c-2.9-1.9-5.8-4-8.7-6c-1.7-1.3-7.1-5.6,0.2,0.3c-1.3-1-2.6-2-3.8-3c-5.7-4.6-11.1-9.5-16.3-14.6     c-5.5-5.4-10.8-11.1-15.7-17c-1.1-1.3-2.2-2.7-3.3-4c-3.8-4.6,3.8,5.1,0.4,0.6c-2.4-3.3-4.8-6.5-7-9.9c-8.6-12.8-16-26.4-22-40.7     c1,2.4,2,4.8,3,7.2c-7.7-18.7-13-38.2-15.8-58.2c0.4,2.7,0.7,5.3,1.1,8c-2.1-15.4-2.2-30.8-2.2-46.4c0-17.5,0-35,0-52.5     c0-43.1,0-86.3,0-129.4c0-10.9-1.1-22.4,0.3-33.2c-0.4,2.7-0.7,5.3-1.1,8c0.4-2.2,1-4.3,1.9-6.4c-1,2.4-2,4.8-3,7.2     c0.6-1.2,1.2-2.3,1.8-3.5c2.3-4.5-5.4,5.9-1,1.5c4.1-4.1-4.6,2.5-2,1.4c1.4-0.6,2.7-1.6,4-2.2c-2.4,1-4.8,2-7.2,3     c2.1-0.9,4.2-1.5,6.4-1.9c-2.7,0.4-5.3,0.7-8,1.1c4.7-0.6,9.6-0.3,14.4-0.3c10,0,19.9,0,29.9,0c33.3,0,66.5,0,99.8,0     c40.4,0,80.8,0,121.2,0c34.8,0,69.6,0,104.4,0c16.5,0,33-0.3,49.5,0c1.5,0,3.1,0.1,4.6,0.3c-2.7-0.4-5.3-0.7-8-1.1     c2.2,0.4,4.3,1,6.4,1.9c-2.4-1-4.8-2-7.2-3c1.2,0.6,2.3,1.2,3.5,1.8c4.5,2.3-5.9-5.4-1.5-1c4.1,4.1-2.5-4.6-1.4-2     c0.6,1.4,1.6,2.7,2.2,4c-1-2.4-2-4.8-3-7.2c0.9,2.1,1.5,4.2,1.9,6.4c-0.4-2.7-0.7-5.3-1.1-8C715.9,133.8,716,135.1,716.1,136.5     c0.4,15.7,13.5,30.7,30,30c15.9-0.7,30.4-13.2,30-30c-0.8-31.2-25.3-55.7-56.5-56.3c-2.8-0.1-5.5,0-8.3,0c-15.4,0-30.8,0-46.3,0     c-53.7,0-107.3,0-161,0c-51.9,0-103.8,0-155.8,0c-13.3,0-26.6,0-39.9,0c-7.2,0-14.5,0.4-21.4,2.8c-23.8,8.3-38.9,29.8-39,55     c-0.2,45.3,0,90.7,0,136c0,24,0,47.9,0,71.9c0,27.5,1.4,54.8,8.2,81.6c13.4,52.9,44.3,102.3,86.5,136.8     c44.6,36.5,98.3,58,156,61.2c103.5,5.8,205.5-53.8,250.4-147.5c18.2-37.9,27-78.3,27-120.3c0-19.1,0-38.2,0-57.3     c0-51.3,0-102.6,0-153.9c0-3.3,0-6.7,0-10c0-15.7-13.8-30.7-30-30C729.8,107.2,716.1,119.7,716.1,136.5z"/></g></g><g><g><path d="M307,444.9c-7.4-0.1-14.8-0.7-22.2-1.6c2.7,0.4,5.3,0.7,8,1.1c-17-2.3-33.6-6.8-49.4-13.3     c2.4,1,4.8,2,7.2,3c-11.4-4.8-22.3-10.7-32.6-17.5c-2.5-1.7-5.1-3.5-7.5-5.3c-5.9-4.4,4.7,3.8,0.9,0.7c-1-0.8-2-1.6-3.1-2.5     c-4.7-3.9-9.2-8-13.6-12.4c-4.3-4.3-8.4-8.9-12.3-13.6c-0.8-1-1.7-2-2.5-3.1c-3.1-3.9,5.1,6.8,0.7,0.9c-1.8-2.5-3.6-5-5.3-7.5     c-6.9-10.3-12.7-21.2-17.5-32.6c1,2.4,2,4.8,3,7.2c-6.4-15.4-10.8-31.5-13.1-48.1c0.4,2.7,0.7,5.3,1.1,8     c-2-14.9-1.8-29.8-1.8-44.7c0-17.6,0-35.3,0-52.9c0-5.2-0.4-10.6,0.3-15.8c-0.4,2.7-0.7,5.3-1.1,8c0.4-2.2,1-4.3,1.9-6.4     c-1,2.4-2,4.8-3,7.2c0.6-1.2,1.2-2.3,1.8-3.5c2.3-4.5-5.4,5.9-1,1.5c4.1-4.1-4.6,2.5-2,1.4c1.4-0.6,2.7-1.6,4-2.2     c-2.4,1-4.8,2-7.2,3c2.1-0.9,4.2-1.5,6.4-1.9c-2.7,0.4-5.3,0.7-8,1.1c5.3-0.7,10.7-0.3,16-0.3c10.6,0,21.2,0,31.9,0     c24.6,0,49.2,0,73.8,0c5.7,0,11.4,0,17.1,0c-10-10-20-20-30-30c0,30.2,0,60.4,0,90.6c0,32.7,0,65.4,0,98.2     c0.1,45,11.6,89.3,33.2,128.7c7.6,13.8,27.7,19.4,41,10.8c14-9,18.8-26.3,10.8-41c-4.1-7.4-7.8-15.1-11.1-22.9c1,2.4,2,4.8,3,7.2     c-7.7-18.7-13-38.2-15.8-58.2c0.4,2.7,0.7,5.3,1.1,8c-3.8-28.2-2.2-57.5-2.2-85.9c0-36.4,0-72.7,0-109.1c0-8.8,0-17.5,0-26.3     c0-16.2-13.7-30-30-30c-27.4,0-54.8,0-82.2,0c-15.1,0-30.2,0-45.4,0c-2.8,0-5.6-0.1-8.4,0c-24.5,1.4-45.1,16.7-52.6,40.3     c-2.4,7.4-2.3,15.2-2.3,22.8c0,7.8,0,15.6,0,23.3c0,16.3,0,32.7,0,49c0,22.7,2.7,45.6,9.2,67.3c8.6,28.8,23,54.6,41.7,78     c17,21.4,38.9,39.5,62.8,52.9c26.9,15.1,55.8,23.6,86.3,27.3c6.7,0.8,13.4,1.2,20.2,1.4c15.7,0.3,30.7-14,30-30     C336.3,458.4,323.8,445.2,307,444.9z"/></g></g><g><g><path d="M877,198.9c0,26.8,0,53.6,0,80.4c0,9.7-0.5,19.3-1.8,28.9c0.4-2.7,0.7-5.3,1.1-8     c-2.3,16.5-6.7,32.7-13.1,48.1c1-2.4,2-4.8,3-7.2c-4.8,11.4-10.6,22.3-17.5,32.6c-1.7,2.6-3.5,5.1-5.3,7.5     c-4.4,5.9,3.8-4.7,0.7-0.9c-0.8,1-1.6,2-2.5,3.1c-3.9,4.7-8,9.3-12.3,13.6c-4.3,4.3-8.9,8.5-13.6,12.4c-1,0.8-2,1.7-3.1,2.5     c-3.9,3.1,6.8-5.1,0.9-0.7c-2.5,1.8-5,3.6-7.5,5.3c-10.3,6.9-21.2,12.7-32.6,17.5c2.4-1,4.8-2,7.2-3     c-15.8,6.6-32.4,11.1-49.4,13.3c2.7-0.4,5.3-0.7,8-1.1c-7.4,0.9-14.8,1.5-22.2,1.6c8.6,15,17.3,30.1,25.9,45.1     c21.2-38.7,32.8-82.2,33.2-126.4c0.1-9.7,0-19.4,0-29.2c0-42.3,0-84.6,0-126.9c0-11.7,0-23.3,0-35c-10,10-20,20-30,30     c39.9,0,79.7,0,119.6,0c6.3,0,12.9-0.5,19.2,0.3c-2.7-0.4-5.3-0.7-8-1.1c2.2,0.4,4.3,1,6.4,1.9c-2.4-1-4.8-2-7.2-3     c1.2,0.6,2.3,1.2,3.5,1.8c4.5,2.3-5.9-5.4-1.5-1c4.1,4.1-2.5-4.6-1.4-2c0.6,1.4,1.6,2.7,2.2,4c-1-2.4-2-4.8-3-7.2     c0.9,2.1,1.5,4.2,1.9,6.4c-0.4-2.7-0.7-5.3-1.1-8C876.9,196.2,877,197.5,877,198.9c0.4,15.7,13.5,30.7,30,30     c15.9-0.7,30.4-13.2,30-30c-0.8-31.5-25.7-56.1-57.3-56.3c-8.1-0.1-16.2,0-24.3,0c-28.8,0-57.6,0-86.4,0c-7.6,0-15.3,0-22.9,0     c-16.2,0-30,13.7-30,30c0,23.6,0,47.2,0,70.8c0,34.6,0,69.1,0,103.7c0,15.6-0.1,31.1-2.2,46.7c0.4-2.7,0.7-5.3,1.1-8     c-2.8,20-8.1,39.5-15.8,58.2c1-2.4,2-4.8,3-7.2c-3.3,7.8-7,15.4-11.1,22.9c-10.7,19.5,2.6,45.6,25.9,45.1     c36-0.7,71.2-9.8,102.9-26.8c30.6-16.4,56.2-40.2,76.5-68.2c19.2-26.6,32.4-58.6,37.3-91c3.2-21.3,3.3-42.1,3.3-63.5     c0-18.9,0-37.7,0-56.6c0-15.7-13.8-30.7-30-30C890.7,169.7,877,182.1,877,198.9z"/></g></g><g><g><path d="M537.6,589.2c0,28.1,0,56.2,0,84.4c0,4,0,8,0,12c10-10,20-20,30-30c-32.4,0-64.8,0-97.2,0     c-4.7,0-9.3,0-14,0c10,10,20,20,30,30c0-28.1,0-56.2,0-84.4c0-4,0-8,0-12c-12.7,9.6-25.3,19.3-38,28.9c41.8,10,85.3,10,127.1,0     c15.3-3.7,25.8-21.8,21-36.9c-5.1-15.9-20.5-24.9-36.9-21c-7.8,1.9-15.7,3.4-23.6,4.5c2.7-0.4,5.3-0.7,8-1.1     c-21.3,2.8-42.7,2.8-64,0c2.7,0.4,5.3,0.7,8,1.1c-7.9-1.1-15.8-2.6-23.6-4.5c-18.8-4.5-38,8.9-38,28.9c0,28.1,0,56.2,0,84.4     c0,4,0,8,0,12c0,16.2,13.7,30,30,30c32.4,0,64.8,0,97.2,0c4.7,0,9.3,0,14,0c16.2,0,30-13.7,30-30c0-28.1,0-56.2,0-84.4     c0-4,0-8,0-12c0-15.7-13.8-30.7-30-30C551.3,560,537.6,572.4,537.6,589.2z"/></g></g><g><g><path d="M696.6,846c0,8.9,0,17.9,0,26.8c0,9,0.9,18.6-0.2,27.6c0.4-2.7,0.7-5.3,1.1-8c-0.3,1.4-0.7,2.5-1.2,3.8     c1-2.4,2-4.8,3-7.2c-0.4,0.8-0.8,1.6-1.3,2.3c3.4-4,4.3-5.2,2.6-3.6c-1.7,1.6-0.5,0.8,3.6-2.6c-0.7,0.5-1.5,0.9-2.3,1.3     c2.4-1,4.8-2,7.2-3c-1.3,0.5-2.5,0.9-3.8,1.2c2.7-0.4,5.3-0.7,8-1.1c-4.2,0.5-8.6,0.2-12.8,0.2c-9.5,0-19.1,0-28.6,0     c-31.7,0-63.3,0-95,0c-38.6,0-77.2,0-115.8,0c-33.2,0-66.3,0-99.5,0c-15.8,0-31.7,0.4-47.6,0c-1.1,0-2.2-0.1-3.3-0.2     c2.7,0.4,5.3,0.7,8,1.1c-1.4-0.3-2.5-0.7-3.8-1.2c2.4,1,4.8,2,7.2,3c-0.8-0.4-1.6-0.8-2.3-1.3c4,3.4,5.2,4.3,3.6,2.6     c-1.6-1.7-0.8-0.5,2.6,3.6c-0.5-0.7-0.9-1.5-1.3-2.3c1,2.4,2,4.8,3,7.2c-0.5-1.3-0.9-2.5-1.2-3.8c0.4,2.7,0.7,5.3,1.1,8     c-1.2-9.3-0.2-19.2-0.2-28.6c0-9.4-1-19.3,0.2-28.6c-0.4,2.7-0.7,5.3-1.1,8c0.3-1.4,0.7-2.5,1.2-3.8c-1,2.4-2,4.8-3,7.2     c0.4-0.8,0.8-1.6,1.3-2.3c-3.4,4-4.3,5.2-2.6,3.6c1.7-1.6,0.5-0.8-3.6,2.6c0.7-0.5,1.5-0.9,2.3-1.3c-2.4,1-4.8,2-7.2,3     c1.3-0.5,2.5-0.9,3.8-1.2c-2.7,0.4-5.3,0.7-8,1.1c4.2-0.5,8.6-0.2,12.8-0.2c9.5,0,19.1,0,28.6,0c31.7,0,63.3,0,95,0     c38.6,0,77.2,0,115.8,0c33.2,0,66.3,0,99.5,0c15.8,0,31.7-0.4,47.6,0c1.1,0,2.2,0.1,3.3,0.2c-2.7-0.4-5.3-0.7-8-1.1     c1.4,0.3,2.5,0.7,3.8,1.2c-2.4-1-4.8-2-7.2-3c0.8,0.4,1.6,0.8,2.3,1.3c-4-3.4-5.2-4.3-3.6-2.6c1.6,1.7,0.8,0.5-2.6-3.6     c0.5,0.7,0.9,1.5,1.3,2.3c-1-2.4-2-4.8-3-7.2c0.5,1.3,0.9,2.5,1.2,3.8c-0.4-2.7-0.7-5.3-1.1-8C696.5,844.2,696.6,845.1,696.6,846     c0.7,15.7,13.3,30.7,30,30c15.7-0.7,30.7-13.2,30-30c-1.1-25.8-20.5-45.4-46.5-46.1c-2.1-0.1-4.2,0-6.4,0c-10.9,0-21.9,0-32.8,0     c-39.7,0-79.5,0-119.2,0c-45.6,0-91.2,0-136.8,0c-30.6,0-61.2,0-91.8,0c-2.8,0-5.6,0-8.4,0c-16.5,0.1-30.4,7.6-39.9,21     c-8.1,11.5-7.5,24.8-7.5,38c0,10.8,0,21.6,0,32.4c0,2.3-0.1,4.7,0,7c1,16.6,9.2,32,24.4,39.9c7.6,4,15.9,5.5,24.3,5.5     c8.9,0,17.7,0,26.6,0c37.5,0,75,0,112.5,0c46.1,0,92.3,0,138.4,0c33.5,0,66.9,0,100.4,0c5.5,0,10.9,0.2,16.4,0     c26.3-0.9,45.9-21.4,46.1-47.6c0.1-9.6,0-19.2,0-28.8c0-7.1,0-14.3,0-21.4c0-15.7-13.8-30.7-30-30     C710.3,816.8,696.6,829.2,696.6,846z"/></g></g><g><g><path d="M627.3,775.3c0,18.2,0,36.4,0,54.6c10-10,20-20,30-30c-32.7,0-65.4,0-98.1,0c-52.2,0-104.3,0-156.5,0     c-12,0-24,0-36.1,0c10,10,20,20,30,30c0-10.6,0-21.2,0-31.8c0-11.7-0.7-23.6,0.8-35.2c-0.4,2.7-0.7,5.3-1.1,8     c1.1-7.5,3.1-14.9,5.9-21.9c-1,2.4-2,4.8-3,7.2c2.2-5.2,4.8-10.3,8-15c0.7-1.1,1.5-2.1,2.2-3.2c2.9-4.3-5.3,6.2-1.1,1.4     c1.9-2.1,3.7-4.2,5.7-6.2c1.8-1.8,3.8-3.6,5.7-5.3c5.1-4.3-3.4,2.3-1.5,1.1c1.3-0.8,2.5-1.8,3.7-2.6c4.8-3.1,9.8-5.8,15-8     c-2.4,1-4.8,2-7.2,3c7.1-2.9,14.4-4.8,21.9-5.9c-2.7,0.4-5.3,0.7-8,1.1c15.7-2,32.2-0.8,47.9-0.8c21.7,0,43.3,0,65,0     c7.7,0,15.4-0.2,23.1,0.8c-2.7-0.4-5.3-0.7-8-1.1c7.5,1.1,14.9,3.1,21.9,5.9c-2.4-1-4.8-2-7.2-3c5.2,2.2,10.3,4.8,15,8     c1.1,0.7,2.1,1.5,3.2,2.2c4.3,2.9-6.2-5.3-1.4-1.1c2.1,1.9,4.2,3.7,6.2,5.7c1.8,1.8,3.6,3.8,5.3,5.7c4.3,5.1-2.3-3.4-1.1-1.5     c0.8,1.3,1.8,2.5,2.6,3.7c3.1,4.8,5.8,9.8,8,15c-1-2.4-2-4.8-3-7.2c2.9,7.1,4.8,14.4,5.9,21.9c-0.4-2.7-0.7-5.3-1.1-8     C627,767.1,627.3,771.2,627.3,775.3c0.1,15.7,13.7,30.7,30,30c16.2-0.7,30.1-13.2,30-30c-0.4-53-36.2-101-87.5-115.3     c-24.6-6.9-52.1-4.4-77.4-4.4c-22,0-44-0.1-66,0c-52.1,0.3-98,34.3-114.2,83.6c-5.6,17.1-5.6,34.9-5.6,52.7c0,12.7,0,25.4,0,38     c0,16.2,13.7,30,30,30c32.7,0,65.4,0,98.1,0c52.2,0,104.3,0,156.5,0c12,0,24,0,36.1,0c16.2,0,30-13.7,30-30c0-18.2,0-36.4,0-54.6     c0-15.7-13.8-30.7-30-30C641.1,746.1,627.3,758.5,627.3,775.3z"/></g></g></g><text x="0" y="1039" fill="#000000" font-size="5px" font-weight="bold" font-family="'Helvetica Neue', Helvetica, Arial-Unicode, Arial, Sans-serif">Created by shashank singh</text><text x="0" y="1044" fill="#000000" font-size="5px" font-weight="bold" font-family="'Helvetica Neue', Helvetica, Arial-Unicode, Arial, Sans-serif">from the Noun Project</text></svg>