<svg xmlns="http://www.w3.org/2000/svg" version="1.1" viewBox="-5.0 -10.0 110.0 135.0">
 <path d="m84.375 50c0-18.953-15.422-34.375-34.375-34.375s-34.375 15.422-34.375 34.375c0 11.535 5.7305 21.742 14.477 27.98l-7.6875 7.6875c-0.60937 0.60938-0.91406 1.4102-0.91406 2.2109 0 0.80078 0.30469 1.5977 0.91406 2.2109 0.60938 0.60938 1.4102 0.91406 2.2109 0.91406s1.5977-0.30469 2.2109-0.91406l8.8672-8.8672c4.3594 2.0039 9.1914 3.1523 14.297 3.1523s9.9375-1.1484 14.301-3.1562l8.8672 8.8672c0.60938 0.60937 1.4102 0.91406 2.2109 0.91406 0.80078 0 1.5977-0.30469 2.2109-0.91406 0.60938-0.60938 0.91406-1.4102 0.91406-2.2109s-0.30469-1.5977-0.91406-2.2109l-7.6914-7.6914c8.7461-6.2305 14.477-16.438 14.477-27.973zm-62.5 0c0-15.508 12.617-28.125 28.125-28.125s28.125 12.617 28.125 28.125-12.617 28.125-28.125 28.125-28.125-12.617-28.125-28.125zm6.3633-29.688c0.58594-0.58594 0.91406-1.3789 0.91406-2.2109 0-0.82812-0.32812-1.6211-0.91406-2.207l-1.1055-1.1055c-4.1328-4.1328-11.34-4.1328-15.469 0-2.0664 2.0664-3.2031 4.8125-3.2031 7.7344 0 2.9219 1.1367 5.6719 3.2031 7.7344l1.1055 1.1055c0.60938 0.60547 1.4102 0.91016 2.207 0.91016 0.80078 0 1.6016-0.30469 2.2109-0.91406zm-13.527 2.2109c0-1.25 0.48828-2.4297 1.375-3.3125 0.88281-0.88672 2.0625-1.375 3.3125-1.375 0.71094 0 1.3984 0.16016 2.0234 0.45312l-6.2578 6.2578c-0.29687-0.625-0.45312-1.3125-0.45312-2.0234zm73.625-7.7344c-4.1328-4.1328-11.336-4.1328-15.469 0l-1.1055 1.1055c-0.58594 0.58594-0.91406 1.3789-0.91406 2.2109 0 0.82812 0.32812 1.6211 0.91406 2.207l11.051 11.047c0.60938 0.60938 1.4102 0.91406 2.2109 0.91406 0.80078 0 1.5977-0.30469 2.2109-0.91406l1.1016-1.1055c2.0664-2.0625 3.207-4.8086 3.207-7.7344-0.003907-2.918-1.1406-5.6641-3.207-7.7305zm-3.5 9.7578-6.2539-6.2578c1.7227-0.81641 3.9492-0.46875 5.3359 0.91797 0.88672 0.88672 1.375 2.0625 1.375 3.3125-0.003907 0.71484-0.16016 1.3984-0.45703 2.0273zm-31.711 6.7031v18.75c0 1.7266-1.3984 3.125-3.125 3.125h-12.5c-1.7266 0-3.125-1.3984-3.125-3.125s1.3984-3.125 3.125-3.125h9.375v-15.625c0-1.7266 1.3984-3.125 3.125-3.125s3.125 1.3984 3.125 3.125z"/>
<text x="0.0" y="117.5" font-size="5.0" font-weight="bold" font-family="Arbeit Regular, Helvetica, Arial-Unicode, Arial, Sans-serif" fill="#000000">Created by FAUZUL KABIR</text><text x="0.0" y="122.5" font-size="5.0" font-weight="bold" font-family="Arbeit Regular, Helvetica, Arial-Unicode, Arial, Sans-serif" fill="#000000">from Noun Project</text></svg>