<svg xmlns="http://www.w3.org/2000/svg" version="1.1" viewBox="-5.0 -10.0 110.0 135.0">
 <path d="m32 80h40c4.4102 0 8-3.5898 8-8v-8c0-4.4102-3.5898-8-8-8h-11.512l12.34-12.34c1.5117-1.5117 2.3398-3.5195 2.3398-5.6602s-0.82812-4.1484-2.3398-5.6602l-5.1719-5.1719c-1.5117-1.5117-3.5195-2.3398-5.6602-2.3398s-4.1484 0.82812-5.6602 2.3398l-12.34 12.34v-11.512c0-4.4102-3.5898-8-8-8h-8c-4.4102 0-8 3.5898-8 8v40c0 6.6211 5.3789 12 12 12zm12-34.828 15.172-15.172c1.5312-1.5312 4.1211-1.5312 5.6602 0l5.1719 5.1719c0.76172 0.76172 1.1719 1.7617 1.1719 2.8281 0 1.0703-0.42188 2.0703-1.1719 2.8281l-15.172 15.172h-10.828v-10.828zm0 22.828v-8h28c2.2109 0 4 1.7891 4 4v8c0 2.2109-1.7891 4-4 4h-31.078c1.9102-2.1289 3.0781-4.9297 3.0781-8zm-20-40c0-2.2109 1.7891-4 4-4h8c2.2109 0 4 1.7891 4 4v40c0 4.4102-3.5898 8-8 8s-8-3.5898-8-8z"/>
<text x="0.0" y="117.5" font-size="5.0" font-weight="bold" font-family="Arbeit Regular, Helvetica, Arial-Unicode, Arial, Sans-serif" fill="#000000">Created by Gregor Cresnar</text><text x="0.0" y="122.5" font-size="5.0" font-weight="bold" font-family="Arbeit Regular, Helvetica, Arial-Unicode, Arial, Sans-serif" fill="#000000">from Noun Project</text></svg>