<svg xmlns="http://www.w3.org/2000/svg" data-name="Layer 1" viewBox="0 0 100 125" x="0px" y="0px"><title>Artboard 11</title><path d="M28,82a8,8,0,0,0,2.2-.31l14-4a8,8,0,0,0,3.46-2L68.83,54.49l5.66-5.66,2.69-2.69A16.49,16.49,0,0,0,65.52,18h-.1a16.78,16.78,0,0,0-11.78,5.05l-2.46,2.46-5.66,5.66L24.34,52.34a8,8,0,0,0-2,3.46l-4,14A8,8,0,0,0,18,72,10,10,0,0,0,28,82ZM59.29,28.71A8.91,8.91,0,0,1,65.46,26h0a8.49,8.49,0,0,1,6,14.49l-1.69,1.69-12-12ZM30,58,51.17,36.83l1-1,12,12-1,1L42,70,28,74a2,2,0,0,1-2-2Z"/><text x="0" y="115" fill="#000000" font-size="5px" font-weight="bold" font-family="'Helvetica Neue', Helvetica, Arial-Unicode, Arial, Sans-serif">Created by Gregor Cresnar</text><text x="0" y="120" fill="#000000" font-size="5px" font-weight="bold" font-family="'Helvetica Neue', Helvetica, Arial-Unicode, Arial, Sans-serif">from the Noun Project</text></svg>