<svg xmlns="http://www.w3.org/2000/svg" xmlns:xlink="http://www.w3.org/1999/xlink" width="1728" zoomAndPan="magnify" viewBox="0 0 1296 1727.999927" height="2304" preserveAspectRatio="xMidYMid meet" version="1.0"><defs><g/><clipPath id="5c0144a2c4"><path d="M 507 1078.726562 L 615 1078.726562 L 615 1170.226562 L 507 1170.226562 Z M 507 1078.726562 " clip-rule="nonzero"/></clipPath><clipPath id="e41235196e"><path d="M 507 1078.726562 L 615 1078.726562 L 615 1170.226562 L 507 1170.226562 Z M 507 1078.726562 " clip-rule="nonzero"/></clipPath></defs><rect x="-129.6" width="1555.2" fill="#ffffff" y="-172.799993" height="2073.599912" fill-opacity="1"/><rect x="-129.6" width="1555.2" fill="#ffffff" y="-172.799993" height="2073.599912" fill-opacity="1"/><path stroke-linecap="butt" transform="matrix(1.584877, 0, 0, 1.584877, -15.367037, 467.725569)" fill="none" stroke-linejoin="miter" d="M 153.58534 78.217942 C 154.756073 76.019428 156.722905 74.493777 159.488301 73.643455 C 162.256161 72.756163 165.731391 72.312516 169.916455 72.312516 C 174.136024 72.312516 177.485554 72.684686 179.969974 73.431491 C 182.451928 74.13886 184.330031 75.0089 185.606747 76.036681 C 186.920433 77.029956 187.948214 78.466877 188.692554 80.34498 C 189.402388 82.826935 189.757305 86.605323 189.757305 91.675214 L 189.757305 212.583631 C 189.757305 215.952879 189.648858 218.471804 189.436894 220.137943 C 189.224929 221.804081 188.532348 223.719154 187.361615 225.883163 C 185.340559 229.819292 179.684068 231.786124 170.394607 231.786124 C 160.215388 231.786124 154.258203 229.092205 152.520589 223.701901 C 151.633296 221.254452 151.192114 217.478529 151.192114 212.371667 L 151.192114 168.167238 L 93.47619 168.167238 L 93.47619 212.583631 C 93.47619 215.952879 93.370208 218.471804 93.158243 220.137943 C 92.943814 221.804081 92.253698 223.719154 91.082964 225.883163 C 89.024938 229.819292 83.351194 231.786124 74.061733 231.786124 C 63.919484 231.786124 57.959835 229.092205 56.187715 223.701901 C 55.337392 221.254452 54.910999 217.478529 54.910999 212.371667 L 54.910999 91.46325 C 54.910999 88.128508 55.016981 85.629301 55.23141 83.963162 C 55.443375 82.297024 56.133491 80.362233 57.304225 78.163719 C 59.32528 74.26456 64.981771 72.312516 74.273697 72.312516 C 84.450451 72.312516 90.479112 74.991647 92.35968 80.34498 C 93.10402 82.826935 93.47619 86.605323 93.47619 91.675214 L 93.47619 136.145831 L 151.192114 136.145831 L 151.192114 91.46325 C 151.192114 88.128508 151.298096 85.629301 151.510061 83.963162 C 151.758996 82.297024 152.449112 80.38195 153.58534 78.217942 Z M 298.509812 160.881579 C 298.509812 169.816124 296.29158 176.431384 291.860046 180.72243 C 287.426047 184.976505 282.516361 187.106008 277.126058 187.106008 L 225.475765 187.106008 C 225.475765 191.182625 227.868991 194.606095 232.655442 197.371491 C 237.478863 200.136887 242.282567 201.519584 247.071483 201.519584 C 255.510622 201.519584 262.125882 200.634756 266.912333 198.860171 L 269.305559 198.009849 C 272.780789 196.412722 275.689137 195.616623 278.030604 195.616623 C 282.674102 195.616623 286.664454 198.877424 289.999196 205.403955 C 291.877299 209.340083 292.81635 212.689613 292.81635 215.457474 C 292.81635 228.365117 277.355275 234.820172 246.433125 234.820172 C 235.687025 234.820172 226.131376 232.97411 217.761248 229.286916 C 209.428091 225.562751 202.921278 220.653065 198.240809 214.552928 C 189.089371 202.813553 184.514884 189.676692 184.514884 175.137415 C 184.514884 156.837003 190.437563 142.208998 202.28292 131.250933 C 214.125813 120.258362 228.914024 114.762077 246.64509 114.762077 C 266.823604 114.762077 281.629068 121.889995 291.061483 136.145831 C 296.027857 143.700142 298.509812 151.94457 298.509812 160.881579 Z M 252.496292 167.262693 C 258.029548 167.262693 260.794943 164.940943 260.794943 160.29498 C 260.794943 156.962703 259.518228 154.283572 256.964797 152.262517 C 254.448336 150.241461 250.812901 149.230933 246.060955 149.230933 C 241.343516 149.230933 236.663047 151.16326 232.017084 155.030377 C 227.371121 158.858059 225.049372 162.937141 225.049372 167.262693 Z M 293.264926 82.314277 C 293.264926 78.979535 293.370908 76.480327 293.582873 74.814189 C 293.794837 73.14805 294.415942 71.213259 295.443723 69.014745 C 297.467243 65.115587 303.121269 63.163543 312.413195 63.163543 C 321.278728 63.163543 326.811984 65.115587 329.010498 69.014745 C 330.144261 71.213259 330.819589 73.182556 331.031553 74.920171 C 331.280488 76.657786 331.403723 79.193964 331.403723 82.526241 L 331.403723 183.433602 C 331.403723 188.646446 331.830117 191.944217 332.680439 193.32938 C 333.567732 194.712078 335.500058 195.402194 338.477418 195.402194 C 341.457243 195.402194 343.443792 195.508176 344.437067 195.722605 C 345.464848 195.93457 346.704593 196.555675 348.158767 197.583455 C 351.067115 199.464023 352.521289 204.622644 352.521289 213.064248 C 352.521289 222.213222 351.067115 227.798236 348.158767 229.819292 C 344.400097 232.444199 335.394076 232.885381 321.13824 231.147766 C 309.965746 229.696057 302.714593 225.989145 299.382316 220.03196 C 295.303235 212.904042 293.264926 201.573808 293.264926 186.041256 Z M 345.117325 263.171638 L 345.117325 135.933867 C 345.117325 132.564619 345.223307 130.082664 345.435271 128.485537 C 345.6497 126.890875 346.268341 125.081784 347.298586 123.060729 C 349.319642 119.1246 354.177569 117.155303 361.872368 117.155303 C 369.567168 117.155303 374.762759 118.148578 377.459143 120.135127 C 380.153062 122.084707 381.713219 124.938831 382.139612 128.697502 C 387.672868 121.180161 396.341225 117.421491 408.152076 117.421491 C 419.994969 117.421491 431.219221 123.006505 441.822369 134.176534 C 452.425516 145.349028 457.72709 158.345401 457.72709 173.168118 C 457.72709 187.990836 452.460022 201.006926 441.928351 212.211461 C 431.431186 223.38149 420.226651 228.968969 408.309817 228.968969 C 396.395448 228.968969 387.74188 225.616975 382.351577 218.91545 L 382.351577 262.959673 C 382.351577 266.29195 382.245594 268.756652 382.03363 270.351314 C 381.819201 271.948441 381.16359 273.792038 380.064333 275.88457 C 379.002047 278.011608 377.155985 279.502753 374.533542 280.353075 C 371.908635 281.240367 368.344676 281.681549 363.841665 281.681549 C 359.33619 281.681549 355.737725 281.240367 353.043806 280.353075 C 350.381928 279.502753 348.503825 278.048578 347.404568 275.990552 C 346.305311 273.969497 345.6497 272.160406 345.435271 270.565744 C 345.223307 268.968617 345.117325 266.503915 345.117325 263.171638 Z M 388.257002 160.561168 C 384.922261 164.462791 383.256122 168.736584 383.256122 173.380083 C 383.256122 178.026046 384.959231 182.282586 388.362985 186.147239 C 391.766738 189.977385 396.112007 191.892459 401.396328 191.892459 C 406.715155 191.892459 411.218165 190.011891 414.907824 186.253221 C 418.629524 182.460044 420.492839 178.168998 420.492839 173.380083 C 420.492839 168.593632 418.735506 164.285333 415.225771 160.455186 C 411.750541 156.590533 407.21056 154.655742 401.608293 154.655742 C 396.040531 154.655742 391.589279 156.625039 388.257002 160.561168 Z M 657.998908 78.378148 C 659.132671 80.576662 659.808 82.543494 660.019964 84.281109 C 660.268899 86.018724 660.392134 88.554902 660.392134 91.889644 L 660.392134 212.849819 C 660.392134 222.851579 657.626738 228.720035 652.093483 230.457649 C 649.328087 231.344942 645.835604 231.786124 641.616035 231.786124 C 637.430971 231.786124 634.096229 231.433671 631.614274 230.723837 C 629.13232 229.979497 627.234499 229.109457 625.923278 228.116183 C 624.646562 227.088402 623.636034 225.616975 622.891694 223.701901 C 622.18186 221.254452 621.826943 217.478529 621.826943 212.371667 L 621.826943 139.389379 C 618.174255 143.894854 612.855428 151.057277 605.867998 160.881579 C 598.917539 170.668911 594.503258 176.803554 592.62269 179.285508 C 590.744587 181.732957 589.430901 183.433602 588.686561 184.392371 C 587.979192 185.348675 586.204607 186.662361 583.367735 188.3285 C 580.530863 189.994638 577.482026 190.827707 574.218761 190.827707 C 570.955496 190.827707 567.978136 190.066115 565.281752 188.540464 C 562.587833 187.017278 560.655507 185.526134 559.484773 184.07196 L 557.729905 181.678734 C 554.856063 178.026046 549.128096 170.296741 540.548468 158.485889 C 531.966376 146.642996 527.320413 140.276671 526.610579 139.389379 L 526.610579 212.849819 C 526.610579 216.184561 526.487344 218.683768 526.238409 220.349907 C 526.026445 222.01851 525.351116 223.862107 524.217354 225.883163 C 522.018839 229.819292 516.345096 231.786124 507.196122 231.786124 C 498.330589 231.786124 492.814587 229.819292 490.653043 225.883163 C 489.48231 223.862107 488.789728 221.98154 488.577764 220.243925 C 488.3658 218.50631 488.257353 215.881402 488.257353 212.371667 L 488.257353 91.46325 C 488.257353 88.128508 488.3658 85.629301 488.577764 83.963162 C 488.789728 82.297024 489.48231 80.362233 490.653043 78.163719 C 492.814587 74.405048 498.471077 72.526945 507.620051 72.526945 C 511.55618 72.526945 514.94268 73.005098 517.779552 73.961402 C 520.618889 74.885665 522.462486 75.859222 523.312808 76.887003 L 524.643747 78.163719 L 574.112779 143.113543 C 598.794304 110.416808 615.265907 88.838343 623.530052 78.378148 C 626.012007 74.476525 631.863209 72.526945 641.083659 72.526945 C 650.304109 72.526945 655.940882 74.476525 657.998908 78.378148 Z M 769.1126 160.881579 C 769.1126 169.816124 766.896833 176.431384 762.462834 180.72243 C 758.0313 184.976505 753.119149 187.106008 747.728846 187.106008 L 696.078553 187.106008 C 696.078553 191.182625 698.471778 194.606095 703.260694 197.371491 C 708.081651 200.136887 712.88782 201.519584 717.674271 201.519584 C 726.115875 201.519584 732.72867 200.634756 737.515121 198.860171 L 739.910811 198.009849 C 743.386041 196.412722 746.291925 195.616623 748.633392 195.616623 C 753.279355 195.616623 757.269707 198.877424 760.601984 205.403955 C 762.482552 209.340083 763.421603 212.689613 763.421603 215.457474 C 763.421603 228.365117 747.960528 234.820172 717.035913 234.820172 C 706.292277 234.820172 696.734163 232.97411 688.366501 229.286916 C 680.030879 225.562751 673.524066 220.653065 668.843597 214.552928 C 659.694623 202.813553 655.120136 189.676692 655.120136 175.137415 C 655.120136 156.837003 661.042815 142.208998 672.885708 131.250933 C 684.731065 120.258362 699.519277 114.762077 717.250342 114.762077 C 737.426392 114.762077 752.231856 121.889995 761.666735 136.145831 C 766.630645 143.700142 769.1126 151.94457 769.1126 160.881579 Z M 723.101544 167.262693 C 728.632336 167.262693 731.397731 164.940943 731.397731 160.29498 C 731.397731 156.962703 730.121015 154.283572 727.570049 152.262517 C 725.051124 150.241461 721.415688 149.230933 716.663743 149.230933 C 711.948768 149.230933 707.265835 151.16326 702.622336 155.030377 C 697.976373 158.858059 695.652159 162.937141 695.652159 167.262693 Z M 723.101544 167.262693 " stroke="#000000" stroke-width="47.118496" stroke-opacity="1" stroke-miterlimit="4"/><g fill="#f4edd7" fill-opacity="1"><g transform="translate(57.834481, 835.417093)"><g><path d="M 170.234375 -243.78125 C 172.078125 -247.238281 175.1875 -249.65625 179.5625 -251.03125 C 183.9375 -252.414062 189.460938 -253.109375 196.140625 -253.109375 C 202.816406 -253.109375 208.109375 -252.53125 212.015625 -251.375 C 215.929688 -250.226562 218.925781 -248.847656 221 -247.234375 C 223.070312 -245.628906 224.679688 -243.332031 225.828125 -240.34375 C 226.984375 -236.425781 227.5625 -230.4375 227.5625 -222.375 L 227.5625 -30.734375 C 227.5625 -25.441406 227.390625 -21.46875 227.046875 -18.8125 C 226.703125 -16.164062 225.609375 -13.117188 223.765625 -9.671875 C 220.535156 -3.453125 211.554688 -0.34375 196.828125 -0.34375 C 180.710938 -0.34375 171.273438 -4.601562 168.515625 -13.125 C 167.128906 -17.039062 166.4375 -23.023438 166.4375 -31.078125 L 166.4375 -101.171875 L 74.9375 -101.171875 L 74.9375 -30.734375 C 74.9375 -25.441406 74.757812 -21.46875 74.40625 -18.8125 C 74.0625 -16.164062 72.972656 -13.117188 71.140625 -9.671875 C 67.910156 -3.453125 58.929688 -0.34375 44.203125 -0.34375 C 28.085938 -0.34375 18.648438 -4.601562 15.890625 -13.125 C 14.503906 -17.039062 13.8125 -23.023438 13.8125 -31.078125 L 13.8125 -222.734375 C 13.8125 -228.023438 13.984375 -231.992188 14.328125 -234.640625 C 14.671875 -237.285156 15.765625 -240.335938 17.609375 -243.796875 C 20.835938 -250.003906 29.816406 -253.109375 44.546875 -253.109375 C 60.660156 -253.109375 70.210938 -248.851562 73.203125 -240.34375 C 74.359375 -236.425781 74.9375 -230.4375 74.9375 -222.375 L 74.9375 -151.9375 L 166.4375 -151.9375 L 166.4375 -222.734375 C 166.4375 -228.023438 166.609375 -231.992188 166.953125 -234.640625 C 167.304688 -237.285156 168.398438 -240.332031 170.234375 -243.78125 Z M 170.234375 -243.78125 "/></g></g></g><g fill="#f4edd7" fill-opacity="1"><g transform="translate(268.46865, 835.417093)"><g><path d="M 189.234375 -112.75 C 189.234375 -98.59375 185.722656 -88.117188 178.703125 -81.328125 C 171.679688 -74.535156 163.910156 -71.140625 155.390625 -71.140625 L 73.546875 -71.140625 C 73.546875 -64.691406 77.34375 -59.28125 84.9375 -54.90625 C 92.539062 -50.53125 100.140625 -48.34375 107.734375 -48.34375 C 121.085938 -48.34375 131.5625 -49.722656 139.15625 -52.484375 L 142.953125 -53.875 C 148.484375 -56.40625 153.085938 -57.671875 156.765625 -57.671875 C 164.140625 -57.671875 170.472656 -52.488281 175.765625 -42.125 C 178.753906 -35.914062 180.25 -30.625 180.25 -26.25 C 180.25 -5.757812 155.734375 4.484375 106.703125 4.484375 C 89.671875 4.484375 74.535156 1.550781 61.296875 -4.3125 C 48.054688 -10.1875 37.753906 -17.957031 30.390625 -27.625 C 15.890625 -46.269531 8.640625 -67.101562 8.640625 -90.125 C 8.640625 -119.132812 18.019531 -142.328125 36.78125 -159.703125 C 55.539062 -177.085938 78.960938 -185.78125 107.046875 -185.78125 C 139.046875 -185.78125 162.523438 -174.5 177.484375 -151.9375 C 185.316406 -139.96875 189.234375 -126.90625 189.234375 -112.75 Z M 116.375 -102.5625 C 125.125 -102.5625 129.5 -106.242188 129.5 -113.609375 C 129.5 -118.898438 127.484375 -123.15625 123.453125 -126.375 C 119.421875 -129.601562 113.664062 -131.21875 106.1875 -131.21875 C 98.707031 -131.21875 91.28125 -128.164062 83.90625 -122.0625 C 76.539062 -115.96875 72.859375 -109.46875 72.859375 -102.5625 Z M 116.375 -102.5625 "/></g></g></g><g fill="#f4edd7" fill-opacity="1"><g transform="translate(435.594363, 835.417093)"><g><path d="M 13.8125 -237.234375 C 13.8125 -242.523438 13.984375 -246.492188 14.328125 -249.140625 C 14.671875 -251.785156 15.648438 -254.835938 17.265625 -258.296875 C 20.484375 -264.515625 29.460938 -267.625 44.203125 -267.625 C 58.242188 -267.625 66.988281 -264.515625 70.4375 -258.296875 C 72.28125 -254.835938 73.375 -251.726562 73.71875 -248.96875 C 74.070312 -246.207031 74.25 -242.179688 74.25 -236.890625 L 74.25 -77 C 74.25 -68.71875 74.9375 -63.484375 76.3125 -61.296875 C 77.695312 -59.109375 80.75 -58.015625 85.46875 -58.015625 C 90.1875 -58.015625 93.347656 -57.84375 94.953125 -57.5 C 96.566406 -57.15625 98.523438 -56.175781 100.828125 -54.5625 C 105.429688 -51.570312 107.734375 -43.398438 107.734375 -30.046875 C 107.734375 -15.535156 105.429688 -6.671875 100.828125 -3.453125 C 94.847656 0.691406 80.578125 1.382812 58.015625 -1.375 C 40.285156 -3.675781 28.773438 -9.550781 23.484375 -19 C 17.035156 -30.269531 13.8125 -48.222656 13.8125 -72.859375 Z M 13.8125 -237.234375 "/></g></g></g><g fill="#f4edd7" fill-opacity="1"><g transform="translate(517.775022, 835.417093)"><g><path d="M 13.8125 49.375 L 13.8125 -152.28125 C 13.8125 -157.570312 13.984375 -161.484375 14.328125 -164.015625 C 14.671875 -166.554688 15.648438 -169.4375 17.265625 -172.65625 C 20.484375 -178.875 28.191406 -181.984375 40.390625 -181.984375 C 52.597656 -181.984375 60.832031 -180.425781 65.09375 -177.3125 C 69.351562 -174.207031 71.828125 -169.660156 72.515625 -163.671875 C 81.265625 -175.648438 95.019531 -181.640625 113.78125 -181.640625 C 132.539062 -181.640625 150.320312 -172.773438 167.125 -155.046875 C 183.9375 -137.316406 192.34375 -116.710938 192.34375 -93.234375 C 192.34375 -69.753906 183.992188 -49.148438 167.296875 -31.421875 C 150.609375 -13.691406 132.828125 -4.828125 113.953125 -4.828125 C 95.078125 -4.828125 81.378906 -10.125 72.859375 -20.71875 L 72.859375 49.03125 C 72.859375 54.332031 72.6875 58.25 72.34375 60.78125 C 72 63.3125 70.960938 66.242188 69.234375 69.578125 C 67.503906 72.921875 64.566406 75.28125 60.421875 76.65625 C 56.285156 78.039062 50.648438 78.734375 43.515625 78.734375 C 36.378906 78.734375 30.679688 78.039062 26.421875 76.65625 C 22.160156 75.28125 19.164062 72.976562 17.4375 69.75 C 15.707031 66.53125 14.671875 63.65625 14.328125 61.125 C 13.984375 58.59375 13.8125 54.675781 13.8125 49.375 Z M 82.1875 -113.265625 C 76.894531 -107.046875 74.25 -100.253906 74.25 -92.890625 C 74.25 -85.523438 76.953125 -78.789062 82.359375 -72.6875 C 87.765625 -66.582031 94.671875 -63.53125 103.078125 -63.53125 C 111.484375 -63.53125 118.617188 -66.523438 124.484375 -72.515625 C 130.359375 -78.503906 133.296875 -85.296875 133.296875 -92.890625 C 133.296875 -100.484375 130.53125 -107.332031 125 -113.4375 C 119.476562 -119.539062 112.285156 -122.59375 103.421875 -122.59375 C 94.554688 -122.59375 87.476562 -119.484375 82.1875 -113.265625 Z M 82.1875 -113.265625 "/></g></g></g><g fill="#f4edd7" fill-opacity="1"><g transform="translate(688.008484, 835.417093)"><g/></g></g><g fill="#f4edd7" fill-opacity="1"><g transform="translate(744.636553, 835.417093)"><g><path d="M 282.8125 -243.453125 C 284.65625 -239.992188 285.75 -236.882812 286.09375 -234.125 C 286.4375 -231.363281 286.609375 -227.332031 286.609375 -222.03125 L 286.609375 -30.390625 C 286.609375 -14.503906 282.234375 -5.179688 273.484375 -2.421875 C 269.109375 -1.035156 263.582031 -0.34375 256.90625 -0.34375 C 250.238281 -0.34375 244.945312 -0.914062 241.03125 -2.0625 C 237.113281 -3.21875 234.117188 -4.601562 232.046875 -6.21875 C 229.972656 -7.832031 228.363281 -10.132812 227.21875 -13.125 C 226.0625 -17.039062 225.484375 -23.023438 225.484375 -31.078125 L 225.484375 -146.765625 C 219.734375 -139.617188 211.332031 -128.273438 200.28125 -112.734375 C 189.226562 -97.203125 182.207031 -87.476562 179.21875 -83.5625 C 176.226562 -79.65625 174.15625 -76.953125 173 -75.453125 C 171.851562 -73.953125 169.035156 -71.878906 164.546875 -69.234375 C 160.054688 -66.585938 155.21875 -65.265625 150.03125 -65.265625 C 144.851562 -65.265625 140.132812 -66.472656 135.875 -68.890625 C 131.625 -71.304688 128.578125 -73.664062 126.734375 -75.96875 L 123.96875 -79.765625 C 119.363281 -85.523438 110.269531 -97.785156 96.6875 -116.546875 C 83.101562 -135.304688 75.738281 -145.378906 74.59375 -146.765625 L 74.59375 -30.390625 C 74.59375 -25.097656 74.414062 -21.125 74.0625 -18.46875 C 73.71875 -15.820312 72.628906 -12.890625 70.796875 -9.671875 C 67.335938 -3.453125 58.359375 -0.34375 43.859375 -0.34375 C 29.816406 -0.34375 21.066406 -3.453125 17.609375 -9.671875 C 15.765625 -12.890625 14.671875 -15.878906 14.328125 -18.640625 C 13.984375 -21.410156 13.8125 -25.554688 13.8125 -31.078125 L 13.8125 -222.734375 C 13.8125 -228.023438 13.984375 -231.992188 14.328125 -234.640625 C 14.671875 -237.285156 15.765625 -240.335938 17.609375 -243.796875 C 21.066406 -249.773438 30.046875 -252.765625 44.546875 -252.765625 C 50.765625 -252.765625 56.117188 -252.015625 60.609375 -250.515625 C 65.097656 -249.023438 68.03125 -247.472656 69.40625 -245.859375 L 71.484375 -243.796875 L 149.859375 -140.890625 C 188.992188 -192.679688 215.125 -226.867188 228.25 -243.453125 C 232.164062 -249.660156 241.429688 -252.765625 256.046875 -252.765625 C 270.671875 -252.765625 279.59375 -249.660156 282.8125 -243.453125 Z M 282.8125 -243.453125 "/></g></g></g><g fill="#f4edd7" fill-opacity="1"><g transform="translate(1014.317872, 835.417093)"><g><path d="M 189.234375 -112.75 C 189.234375 -98.59375 185.722656 -88.117188 178.703125 -81.328125 C 171.679688 -74.535156 163.910156 -71.140625 155.390625 -71.140625 L 73.546875 -71.140625 C 73.546875 -64.691406 77.34375 -59.28125 84.9375 -54.90625 C 92.539062 -50.53125 100.140625 -48.34375 107.734375 -48.34375 C 121.085938 -48.34375 131.5625 -49.722656 139.15625 -52.484375 L 142.953125 -53.875 C 148.484375 -56.40625 153.085938 -57.671875 156.765625 -57.671875 C 164.140625 -57.671875 170.472656 -52.488281 175.765625 -42.125 C 178.753906 -35.914062 180.25 -30.625 180.25 -26.25 C 180.25 -5.757812 155.734375 4.484375 106.703125 4.484375 C 89.671875 4.484375 74.535156 1.550781 61.296875 -4.3125 C 48.054688 -10.1875 37.753906 -17.957031 30.390625 -27.625 C 15.890625 -46.269531 8.640625 -67.101562 8.640625 -90.125 C 8.640625 -119.132812 18.019531 -142.328125 36.78125 -159.703125 C 55.539062 -177.085938 78.960938 -185.78125 107.046875 -185.78125 C 139.046875 -185.78125 162.523438 -174.5 177.484375 -151.9375 C 185.316406 -139.96875 189.234375 -126.90625 189.234375 -112.75 Z M 116.375 -102.5625 C 125.125 -102.5625 129.5 -106.242188 129.5 -113.609375 C 129.5 -118.898438 127.484375 -123.15625 123.453125 -126.375 C 119.421875 -129.601562 113.664062 -131.21875 106.1875 -131.21875 C 98.707031 -131.21875 91.28125 -128.164062 83.90625 -122.0625 C 76.539062 -115.96875 72.859375 -109.46875 72.859375 -102.5625 Z M 116.375 -102.5625 "/></g></g></g><path stroke-linecap="butt" transform="matrix(1.584877, 0, 0, 1.584877, 79.000502, 793.175669)" fill="none" stroke-linejoin="miter" d="M 267.557864 100.771873 C 271.22534 108.212808 273.059078 116.491742 273.059078 125.613603 C 273.059078 134.733 271.22534 142.979893 267.557864 150.351816 C 263.922428 157.72374 259.224706 163.587266 253.464698 167.939929 C 241.806658 176.958273 229.737013 181.466213 217.258227 181.466213 L 190.925352 181.466213 L 190.925352 205.228404 C 190.925352 208.484275 190.821834 210.919401 190.617264 212.531316 C 190.410229 214.143231 189.742295 215.994222 188.610997 218.084289 C 186.621982 221.892254 181.135556 223.795004 172.151717 223.795004 C 162.347133 223.795004 156.587125 221.187349 154.871692 215.976969 C 154.048482 213.610855 153.636877 209.960632 153.636877 205.021369 L 153.636877 88.120558 C 153.636877 84.896728 153.740394 82.478855 153.947429 80.869405 C 154.151999 79.25749 154.819934 77.389246 155.951232 75.262208 C 157.90574 71.491214 163.374914 69.605717 172.358752 69.605717 L 217.462797 69.605717 C 229.806024 69.605717 241.806658 74.096404 253.464698 83.080243 C 259.224706 87.435371 263.922428 93.330938 267.557864 100.771873 Z M 217.462797 144.180203 C 221.679902 144.180203 225.813207 142.637299 229.857783 139.551493 C 233.93933 136.43118 235.977638 131.785217 235.977638 125.613603 C 235.977638 119.44199 233.93933 114.778774 229.857783 111.623955 C 225.813207 108.469137 221.610891 106.891728 217.258227 106.891728 L 190.925352 106.891728 L 190.925352 144.180203 Z M 217.462797 144.180203 " stroke="#000000" stroke-width="43.713402" stroke-opacity="1" stroke-miterlimit="4"/><path stroke-linecap="butt" transform="matrix(1.584877, 0, 0, 1.584877, 79.000502, 793.175669)" fill="none" stroke-linejoin="miter" d="M 288.887394 191.854932 C 290.292274 189.111718 292.436565 187.260727 295.315336 186.301958 C 298.196573 185.306219 302.68726 184.810814 308.789862 184.810814 C 314.894928 184.810814 319.316604 186.146682 322.059817 188.820884 C 324.80303 191.495085 326.173404 195.71219 326.173404 201.472199 L 326.173404 204.816799 C 326.173404 208.210694 326.072352 210.714831 325.865317 212.324281 C 325.660746 213.936196 324.990347 215.856199 323.859049 218.084289 C 321.596453 222.165836 316.213544 224.206609 307.710322 224.206609 C 299.241607 224.206609 293.636874 222.83377 290.893661 220.090557 C 288.150448 217.347344 286.777609 212.050699 286.777609 204.198159 C 286.777609 198.714197 287.480049 194.598145 288.887394 191.854932 Z M 317.07126 167.375512 C 314.431564 168.0607 310.865141 168.403293 306.374454 168.403293 C 301.881302 168.403293 298.30009 168.0607 295.623424 167.375512 C 292.949223 166.655819 291.080979 165.386498 290.018692 163.570013 C 288.990911 161.716557 288.355018 160.089854 288.115942 158.682509 C 287.908907 157.277629 287.807854 155.098832 287.807854 152.151049 L 287.807854 85.394598 C 287.807854 82.446814 287.908907 80.233512 288.115942 78.75962 C 288.355018 77.285728 289.022952 75.639307 290.12221 73.822822 C 291.253508 71.971831 293.156258 70.668004 295.830459 69.913805 C 298.504661 69.1251 302.088337 68.730748 306.579024 68.730748 C 311.069711 68.730748 314.653388 69.1251 317.327589 69.913805 C 320.001791 70.668004 321.855247 72.006337 322.883027 73.92634 C 323.945314 75.811837 324.578742 77.490299 324.785777 78.966655 C 324.990347 80.440547 325.093865 82.651384 325.093865 85.599168 L 325.093865 152.358084 C 325.093865 155.305867 324.990347 157.482199 324.785777 158.889544 C 324.578742 160.294424 323.910808 161.889086 322.77951 163.671065 C 321.648212 165.421004 319.745462 166.655819 317.07126 167.375512 Z M 317.07126 167.375512 " stroke="#000000" stroke-width="43.713402" stroke-opacity="1" stroke-miterlimit="4"/><path stroke-linecap="butt" transform="matrix(1.584877, 0, 0, 1.584877, 79.000502, 793.175669)" fill="none" stroke-linejoin="miter" d="M 377.796586 168.506811 C 377.796586 174.471389 379.751094 179.100099 383.657647 182.392941 C 387.60117 185.683318 391.783769 187.329739 396.207909 187.329739 C 400.629584 187.329739 404.762889 186.043165 408.602895 183.472481 C 412.477406 180.867291 415.614972 179.563463 418.013127 179.563463 C 422.232696 179.563463 427.356812 183.285163 433.392867 190.723634 C 436.614232 194.80518 438.226147 198.455403 438.226147 201.679234 C 438.226147 206.993131 434.368889 211.981687 426.654372 216.644903 C 418.631767 222.234847 408.807465 225.029819 397.183931 225.029819 C 384.121011 225.029819 371.538708 220.332098 359.434557 210.936654 C 353.674548 206.445967 348.959573 200.444418 345.292097 192.936936 C 341.656662 185.426989 339.840176 177.145591 339.840176 168.095205 C 339.840176 159.007849 341.656662 150.780674 345.292097 143.408751 C 348.959573 136.036828 353.674548 130.10429 359.434557 125.613603 C 371.092597 116.356183 383.522088 111.727473 396.723032 111.727473 C 402.071435 111.727473 407.264562 112.464419 412.304877 113.93831 C 417.379698 115.412202 421.116186 116.851588 423.516806 118.258933 L 426.861407 120.366253 C 429.397585 122.04718 431.369346 123.385513 432.774226 124.378788 C 436.409662 127.191013 438.226147 130.377872 438.226147 133.944296 C 438.226147 137.510719 436.752255 141.540507 433.804472 146.031194 C 428.764156 153.780217 423.928411 157.654728 419.299701 157.654728 C 416.6255 157.654728 412.82 156.111825 407.883202 153.026018 C 405.379065 150.625398 401.763347 149.425088 397.031119 149.425088 C 392.333398 149.425088 387.943763 151.123268 383.864682 154.517163 C 379.817641 157.876551 377.796586 162.539767 377.796586 168.506811 Z M 377.796586 168.506811 " stroke="#000000" stroke-width="43.713402" stroke-opacity="1" stroke-miterlimit="4"/><path stroke-linecap="butt" transform="matrix(1.584877, 0, 0, 1.584877, 79.000502, 793.175669)" fill="none" stroke-linejoin="miter" d="M 517.266672 168.403293 L 545.245968 191.546844 C 548.777886 194.497092 550.988724 196.742436 551.880946 198.285339 C 552.805209 199.828242 553.268573 201.302134 553.268573 202.707014 C 553.268573 206.100909 551.092241 210.680325 546.737113 216.440333 C 541.97038 222.3359 537.753275 225.286148 534.085798 225.286148 C 530.999991 225.286148 526.713875 223.245375 521.227448 219.166294 L 519.117664 217.675149 C 515.896298 214.998483 510.907742 210.337731 504.151994 203.685501 C 497.433216 196.998765 492.323889 192.249284 488.826477 189.439524 L 488.826477 205.691768 C 488.826477 208.913134 488.705707 211.331006 488.466631 212.942921 C 488.259596 214.554836 487.608914 216.42308 486.512122 218.547653 C 484.661131 222.183089 479.243716 223.999574 470.259878 223.999574 C 461.414063 223.999574 456.013901 222.096824 454.059392 218.291324 C 453.063653 216.198792 452.46473 214.347801 452.257695 212.735886 C 452.053125 211.123971 451.949607 208.708563 451.949607 205.484733 L 451.949607 79.274743 C 451.949607 76.050913 452.053125 73.63304 452.257695 72.02359 C 452.46473 70.411675 453.063653 68.543431 454.059392 66.416393 C 456.013901 62.645399 461.483074 60.759902 470.464448 60.759902 C 477.220196 60.759902 482.001718 61.942959 484.813942 64.306608 C 487.180056 66.295623 488.449378 69.381429 488.619442 73.566493 C 488.757466 74.83335 488.826477 76.805111 488.826477 79.479313 L 488.826477 146.287523 C 491.32815 144.16295 495.133649 140.579273 500.242976 135.538958 C 505.386809 130.464137 509.226815 126.882925 511.762993 124.790393 L 514.284383 123.092213 C 519.221181 119.286714 523.438286 117.383964 526.935698 117.383964 C 530.43311 117.383964 534.462898 120.230694 539.022596 125.921691 C 543.616801 131.612688 545.913903 136.088586 545.913903 139.344458 C 545.913903 142.568288 543.308713 146.356535 538.095868 150.711663 Z M 517.266672 168.403293 " stroke="#000000" stroke-width="43.713402" stroke-opacity="1" stroke-miterlimit="4"/><g fill="#ffbd59" fill-opacity="1"><g transform="translate(309.129632, 1148.188175)"><g><path d="M 193.96875 -195.3125 C 199.757812 -183.519531 202.65625 -170.390625 202.65625 -155.921875 C 202.65625 -141.453125 199.757812 -128.375 193.96875 -116.6875 C 188.1875 -105 180.734375 -95.707031 171.609375 -88.8125 C 153.140625 -74.5625 134 -67.4375 114.1875 -67.4375 L 72.453125 -67.4375 L 72.453125 -29.71875 C 72.453125 -24.59375 72.285156 -20.75 71.953125 -18.1875 C 71.617188 -15.632812 70.5625 -12.6875 68.78125 -9.34375 C 65.664062 -3.332031 56.984375 -0.328125 42.734375 -0.328125 C 27.148438 -0.328125 18.023438 -4.445312 15.359375 -12.6875 C 14.023438 -16.46875 13.359375 -22.253906 13.359375 -30.046875 L 13.359375 -215.34375 C 13.359375 -220.46875 13.523438 -224.304688 13.859375 -226.859375 C 14.191406 -229.421875 15.25 -232.375 17.03125 -235.71875 C 20.144531 -241.726562 28.820312 -244.734375 43.0625 -244.734375 L 114.515625 -244.734375 C 134.109375 -244.734375 153.140625 -237.609375 171.609375 -223.359375 C 180.734375 -216.460938 188.1875 -207.113281 193.96875 -195.3125 Z M 114.515625 -126.53125 C 121.191406 -126.53125 127.757812 -128.976562 134.21875 -133.875 C 140.675781 -138.78125 143.90625 -146.128906 143.90625 -155.921875 C 143.90625 -165.710938 140.675781 -173.113281 134.21875 -178.125 C 127.757812 -183.132812 121.082031 -185.640625 114.1875 -185.640625 L 72.453125 -185.640625 L 72.453125 -126.53125 Z M 114.515625 -126.53125 "/></g></g></g><g fill="#a9d1f9" fill-opacity="1"><g transform="translate(520.141181, 1148.188175)"><g><path d="M 16.6875 -50.90625 C 18.914062 -55.25 22.3125 -58.195312 26.875 -59.75 C 31.4375 -61.3125 38.554688 -62.09375 48.234375 -62.09375 C 57.921875 -62.09375 64.9375 -59.976562 69.28125 -55.75 C 73.625 -51.519531 75.796875 -44.84375 75.796875 -35.71875 L 75.796875 -30.375 C 75.796875 -25.039062 75.625 -21.09375 75.28125 -18.53125 C 74.945312 -15.96875 73.890625 -12.90625 72.109375 -9.34375 C 68.554688 -2.894531 60.046875 0.328125 46.578125 0.328125 C 33.109375 0.328125 24.203125 -1.835938 19.859375 -6.171875 C 15.523438 -10.515625 13.359375 -18.921875 13.359375 -31.390625 C 13.359375 -40.066406 14.46875 -46.570312 16.6875 -50.90625 Z M 61.4375 -89.8125 C 57.207031 -88.695312 51.53125 -88.140625 44.40625 -88.140625 C 37.28125 -88.140625 31.601562 -88.695312 27.375 -89.8125 C 23.144531 -90.925781 20.195312 -92.925781 18.53125 -95.8125 C 16.863281 -98.707031 15.863281 -101.269531 15.53125 -103.5 C 15.195312 -105.726562 15.03125 -109.175781 15.03125 -113.84375 L 15.03125 -219.6875 C 15.03125 -224.363281 15.195312 -227.867188 15.53125 -230.203125 C 15.863281 -232.546875 16.921875 -235.160156 18.703125 -238.046875 C 20.484375 -240.941406 23.488281 -243 27.71875 -244.21875 C 31.945312 -245.445312 37.617188 -246.0625 44.734375 -246.0625 C 51.859375 -246.0625 57.535156 -245.445312 61.765625 -244.21875 C 65.992188 -243 68.941406 -240.882812 70.609375 -237.875 C 72.285156 -234.875 73.289062 -232.207031 73.625 -229.875 C 73.957031 -227.539062 74.125 -224.035156 74.125 -219.359375 L 74.125 -113.515625 C 74.125 -108.835938 73.957031 -105.382812 73.625 -103.15625 C 73.289062 -100.9375 72.234375 -98.4375 70.453125 -95.65625 C 68.671875 -92.875 65.664062 -90.925781 61.4375 -89.8125 Z M 61.4375 -89.8125 "/></g></g></g><g fill="#a4c586" fill-opacity="1"><g transform="translate(609.290527, 1148.188175)"><g><path d="M 68.4375 -87.96875 C 68.4375 -78.507812 71.550781 -71.164062 77.78125 -65.9375 C 84.019531 -60.707031 90.644531 -58.09375 97.65625 -58.09375 C 104.664062 -58.09375 111.226562 -60.148438 117.34375 -64.265625 C 123.46875 -68.390625 128.425781 -70.453125 132.21875 -70.453125 C 138.894531 -70.453125 147.019531 -64.550781 156.59375 -52.75 C 161.707031 -46.289062 164.265625 -40.503906 164.265625 -35.390625 C 164.265625 -26.929688 158.144531 -19.03125 145.90625 -11.6875 C 133.21875 -2.78125 117.632812 1.671875 99.15625 1.671875 C 78.457031 1.671875 58.535156 -5.785156 39.390625 -20.703125 C 30.265625 -27.828125 22.804688 -37.34375 17.015625 -49.25 C 11.234375 -61.15625 8.34375 -74.285156 8.34375 -88.640625 C 8.34375 -102.992188 11.234375 -116.015625 17.015625 -127.703125 C 22.804688 -139.390625 30.265625 -148.796875 39.390625 -155.921875 C 57.867188 -170.609375 77.570312 -177.953125 98.5 -177.953125 C 106.957031 -177.953125 115.191406 -176.78125 123.203125 -174.4375 C 131.210938 -172.101562 137.109375 -169.828125 140.890625 -167.609375 L 146.234375 -164.265625 C 150.242188 -161.597656 153.359375 -159.484375 155.578125 -157.921875 C 161.367188 -153.472656 164.265625 -148.410156 164.265625 -142.734375 C 164.265625 -137.054688 161.925781 -130.65625 157.25 -123.53125 C 149.238281 -111.289062 141.5625 -105.171875 134.21875 -105.171875 C 129.988281 -105.171875 123.976562 -107.617188 116.1875 -112.515625 C 112.175781 -116.296875 106.441406 -118.1875 98.984375 -118.1875 C 91.535156 -118.1875 84.582031 -115.515625 78.125 -110.171875 C 71.664062 -104.835938 68.4375 -97.4375 68.4375 -87.96875 Z M 68.4375 -87.96875 "/></g></g></g><g fill="#f68cc3" fill-opacity="1"><g transform="translate(781.918338, 1148.188175)"><g><path d="M 116.859375 -88.140625 L 161.265625 -51.421875 C 166.828125 -46.742188 170.332031 -43.179688 171.78125 -40.734375 C 173.226562 -38.285156 173.953125 -35.945312 173.953125 -33.71875 C 173.953125 -28.375 170.5 -21.140625 163.59375 -12.015625 C 156.03125 -2.671875 149.351562 2 143.5625 2 C 138.664062 2 131.878906 -1.222656 123.203125 -7.671875 L 119.859375 -10.015625 C 114.742188 -14.242188 106.84375 -21.644531 96.15625 -32.21875 C 85.46875 -42.789062 77.34375 -50.300781 71.78125 -54.75 L 71.78125 -29.046875 C 71.78125 -23.929688 71.613281 -20.09375 71.28125 -17.53125 C 70.945312 -14.96875 69.890625 -12.019531 68.109375 -8.6875 C 65.210938 -2.894531 56.644531 0 42.40625 0 C 28.382812 0 19.8125 -3.003906 16.6875 -9.015625 C 15.132812 -12.347656 14.191406 -15.296875 13.859375 -17.859375 C 13.523438 -20.421875 13.359375 -24.257812 13.359375 -29.375 L 13.359375 -229.375 C 13.359375 -234.488281 13.523438 -238.328125 13.859375 -240.890625 C 14.191406 -243.453125 15.132812 -246.398438 16.6875 -249.734375 C 19.8125 -255.742188 28.492188 -258.75 42.734375 -258.75 C 53.421875 -258.75 60.988281 -256.859375 65.4375 -253.078125 C 69.21875 -249.960938 71.222656 -245.066406 71.453125 -238.390625 C 71.671875 -236.378906 71.78125 -233.257812 71.78125 -229.03125 L 71.78125 -123.203125 C 75.789062 -126.535156 81.859375 -132.207031 89.984375 -140.21875 C 98.109375 -148.238281 104.171875 -153.914062 108.171875 -157.25 L 112.1875 -159.921875 C 119.976562 -165.929688 126.65625 -168.9375 132.21875 -168.9375 C 137.78125 -168.9375 144.175781 -164.425781 151.40625 -155.40625 C 158.644531 -146.394531 162.265625 -139.328125 162.265625 -134.203125 C 162.265625 -129.085938 158.144531 -123.082031 149.90625 -116.1875 Z M 116.859375 -88.140625 "/></g></g></g><path fill="#f68cc3" d="M 559.875 1158.632812 C 556.804688 1155.941406 553.636719 1153.152344 550.21875 1150.460938 C 547.050781 1147.960938 543.789062 1145.554688 540.589844 1143.210938 C 537.773438 1141.121094 534.828125 1138.964844 532.039062 1136.8125 C 523.269531 1129.972656 518.550781 1123.007812 517.25 1114.964844 C 516.269531 1109.042969 517.1875 1103.246094 519.816406 1098.65625 C 522.792969 1093.460938 527.703125 1090.105469 534.382812 1088.648438 C 535.648438 1088.363281 536.851562 1088.234375 538.023438 1088.234375 C 542.140625 1088.234375 545.941406 1089.851562 549.648438 1093.207031 C 551.386719 1094.789062 553.003906 1096.660156 554.714844 1098.621094 C 555.535156 1099.574219 556.359375 1100.554688 557.246094 1101.503906 C 558.132812 1102.484375 559.433594 1103.054688 560.761719 1103.054688 C 560.792969 1103.054688 560.824219 1103.054688 560.855469 1103.054688 C 562.21875 1103.023438 563.515625 1102.421875 564.402344 1101.378906 C 565.070312 1100.617188 565.703125 1099.824219 566.335938 1099.035156 C 567.664062 1097.386719 568.964844 1095.804688 570.324219 1094.378906 C 574.21875 1090.324219 578.75 1088.265625 583.753906 1088.265625 C 592.398438 1088.265625 599.996094 1094.441406 602.339844 1100.425781 C 606.617188 1111.289062 604.621094 1121.167969 596.417969 1129.816406 C 592.492188 1133.929688 587.867188 1137.476562 582.992188 1141.246094 C 580.871094 1142.863281 578.6875 1144.539062 576.5625 1146.28125 C 572.164062 1149.859375 567.664062 1153.5 563.328125 1157.015625 C 562.410156 1157.746094 561.492188 1158.503906 560.605469 1159.234375 C 560.382812 1159.042969 560.128906 1158.820312 559.875 1158.632812 Z M 559.875 1158.632812 " fill-opacity="1" fill-rule="nonzero"/><path fill="#f68cc3" d="M 538.023438 1092.984375 C 540.90625 1092.984375 543.660156 1094.222656 546.480469 1096.753906 C 548 1098.148438 549.519531 1099.890625 551.136719 1101.757812 C 551.957031 1102.738281 552.84375 1103.722656 553.761719 1104.734375 C 555.570312 1106.730469 558.132812 1107.835938 560.792969 1107.835938 C 560.855469 1107.835938 560.921875 1107.835938 560.953125 1107.835938 C 563.675781 1107.773438 566.273438 1106.570312 568.046875 1104.449219 C 568.710938 1103.65625 569.375 1102.835938 570.007812 1102.042969 C 571.277344 1100.460938 572.511719 1098.972656 573.746094 1097.671875 C 576.722656 1094.570312 580.078125 1093.019531 583.722656 1093.019531 C 586.664062 1093.019531 589.800781 1094.03125 592.523438 1095.898438 C 595.058594 1097.609375 597.019531 1099.890625 597.90625 1102.136719 C 599.710938 1106.730469 600.21875 1111.097656 599.394531 1115.089844 C 598.574219 1119.046875 596.417969 1122.878906 592.9375 1126.523438 C 589.261719 1130.386719 584.796875 1133.804688 580.078125 1137.445312 C 577.925781 1139.09375 575.707031 1140.804688 573.554688 1142.578125 C 569.28125 1146.058594 564.910156 1149.574219 560.699219 1152.996094 C 558.292969 1150.90625 555.789062 1148.75 553.128906 1146.660156 C 549.898438 1144.097656 546.574219 1141.691406 543.375 1139.316406 C 540.433594 1137.160156 537.675781 1135.136719 534.953125 1132.980469 C 527.164062 1126.902344 523.015625 1120.917969 521.90625 1114.109375 C 521.113281 1109.261719 521.84375 1104.574219 523.933594 1100.933594 C 526.214844 1096.945312 530.078125 1094.347656 535.398438 1093.207031 C 536.316406 1093.082031 537.203125 1092.984375 538.023438 1092.984375 M 538.023438 1083.484375 C 536.535156 1083.484375 534.984375 1083.644531 533.402344 1083.992188 C 516.207031 1087.730469 510.410156 1102.484375 512.597656 1115.722656 C 514.304688 1126.238281 520.828125 1134.058594 529.15625 1140.550781 C 535.113281 1145.207031 541.351562 1149.480469 547.273438 1154.167969 C 551.988281 1157.902344 556.421875 1161.988281 560.476562 1165.441406 C 566.808594 1160.308594 573.207031 1155.148438 579.574219 1149.957031 C 586.414062 1144.382812 593.886719 1139.410156 599.871094 1133.109375 C 609.210938 1123.292969 611.871094 1111.605469 606.773438 1098.6875 C 603.574219 1090.609375 594.042969 1083.515625 583.753906 1083.515625 C 578.050781 1083.515625 572.097656 1085.703125 566.90625 1091.117188 C 564.6875 1093.429688 562.789062 1095.960938 560.792969 1098.335938 C 558.101562 1095.359375 555.726562 1092.257812 552.84375 1089.660156 C 548.539062 1085.828125 543.628906 1083.484375 538.023438 1083.484375 Z M 538.023438 1083.484375 " fill-opacity="1" fill-rule="nonzero"/><g clip-path="url(#5c0144a2c4)"><path fill="#000000" d="M 538.023438 1083.484375 C 543.628906 1083.484375 548.539062 1085.828125 552.84375 1089.691406 C 555.726562 1092.289062 558.101562 1095.394531 560.792969 1098.371094 C 562.789062 1095.996094 564.71875 1093.460938 566.90625 1091.148438 C 572.097656 1085.734375 578.019531 1083.550781 583.753906 1083.550781 C 594.042969 1083.550781 603.574219 1090.609375 606.773438 1098.71875 C 611.871094 1111.636719 609.210938 1123.292969 599.871094 1133.140625 C 593.886719 1139.441406 586.414062 1144.445312 579.574219 1149.988281 C 573.207031 1155.179688 566.808594 1160.34375 560.476562 1165.472656 C 556.421875 1161.988281 551.988281 1157.902344 547.273438 1154.199219 C 541.351562 1149.511719 535.113281 1145.238281 529.15625 1140.582031 C 520.828125 1134.089844 514.304688 1126.269531 512.597656 1115.753906 C 510.410156 1102.484375 516.207031 1087.730469 533.402344 1083.992188 C 535.015625 1083.644531 536.535156 1083.484375 538.023438 1083.484375 M 538.023438 1078.734375 C 536.1875 1078.734375 534.289062 1078.957031 532.417969 1079.335938 C 523.109375 1081.363281 515.921875 1086.398438 511.613281 1093.9375 C 507.910156 1100.425781 506.578125 1108.441406 507.910156 1116.484375 C 508.828125 1122.121094 511.042969 1127.472656 514.527344 1132.378906 C 517.472656 1136.527344 521.304688 1140.421875 526.246094 1144.285156 C 529.125 1146.535156 532.101562 1148.71875 534.984375 1150.84375 C 538.089844 1153.121094 541.285156 1155.496094 544.328125 1157.871094 C 547.558594 1160.40625 550.628906 1163.128906 553.605469 1165.726562 C 554.902344 1166.867188 556.136719 1167.972656 557.375 1169.019531 C 558.261719 1169.777344 559.367188 1170.160156 560.476562 1170.160156 C 561.523438 1170.160156 562.597656 1169.8125 563.453125 1169.113281 C 565.386719 1167.5625 567.316406 1165.980469 569.28125 1164.394531 C 573.652344 1160.878906 578.148438 1157.238281 582.582031 1153.628906 C 584.605469 1151.980469 586.730469 1150.367188 588.789062 1148.785156 C 593.757812 1144.984375 598.890625 1141.023438 603.324219 1136.371094 C 614.152344 1124.96875 616.875 1111.351562 611.207031 1096.945312 C 609.277344 1092.035156 605.507812 1087.507812 600.632812 1084.152344 C 595.5625 1080.699219 589.578125 1078.765625 583.785156 1078.765625 C 576.214844 1078.765625 569.21875 1081.902344 563.515625 1087.824219 C 562.535156 1088.871094 561.585938 1089.914062 560.699219 1090.992188 C 559.242188 1089.34375 557.722656 1087.664062 556.011719 1086.144531 C 550.566406 1081.238281 544.515625 1078.734375 538.023438 1078.734375 Z M 538.023438 1078.734375 " fill-opacity="1" fill-rule="nonzero"/></g><path fill="#000000" d="M 560.507812 1168.765625 C 559.75 1168.765625 558.957031 1168.511719 558.355469 1167.972656 C 557.121094 1166.929688 555.886719 1165.851562 554.585938 1164.679688 C 551.578125 1162.050781 548.476562 1159.328125 545.246094 1156.765625 C 542.171875 1154.355469 538.976562 1151.980469 535.839844 1149.703125 C 532.957031 1147.582031 529.980469 1145.394531 527.132812 1143.179688 C 516.777344 1135.101562 510.980469 1126.300781 509.335938 1116.261719 C 508.035156 1108.503906 509.304688 1100.839844 512.847656 1094.632812 C 516.933594 1087.476562 523.804688 1082.664062 532.703125 1080.730469 C 540.8125 1078.957031 548.347656 1081.140625 555.0625 1087.191406 C 557.152344 1089.058594 558.957031 1091.148438 560.699219 1093.175781 C 561.902344 1091.71875 563.136719 1090.230469 564.5 1088.804688 C 571.210938 1081.808594 579.890625 1078.925781 588.882812 1080.699219 C 598.191406 1082.535156 606.617188 1089.28125 609.847656 1097.449219 C 615.292969 1111.289062 612.664062 1124.398438 602.246094 1135.355469 C 597.875 1139.949219 592.808594 1143.84375 587.902344 1147.613281 C 585.84375 1149.195312 583.6875 1150.84375 581.664062 1152.488281 C 577.261719 1156.097656 572.765625 1159.707031 568.394531 1163.253906 C 566.429688 1164.839844 564.5 1166.421875 562.566406 1167.972656 C 561.964844 1168.511719 561.238281 1168.765625 560.507812 1168.765625 Z M 538.054688 1086.8125 C 536.789062 1086.8125 535.460938 1086.96875 534.128906 1087.253906 C 527.132812 1088.773438 521.78125 1092.480469 518.613281 1097.957031 C 515.828125 1102.835938 514.84375 1108.945312 515.859375 1115.183594 C 517.21875 1123.609375 522.097656 1130.828125 531.183594 1137.921875 C 533.972656 1140.105469 536.917969 1142.261719 539.734375 1144.351562 C 542.902344 1146.660156 546.164062 1149.070312 549.296875 1151.570312 C 552.6875 1154.230469 555.855469 1157.015625 558.894531 1159.707031 C 559.433594 1160.183594 559.96875 1160.660156 560.507812 1161.132812 C 561.742188 1160.152344 562.945312 1159.140625 564.183594 1158.15625 C 568.519531 1154.640625 573.015625 1151 577.417969 1147.421875 C 579.507812 1145.710938 581.695312 1144.035156 583.816406 1142.417969 C 588.753906 1138.617188 593.410156 1135.070312 597.402344 1130.859375 C 606.046875 1121.769531 608.136719 1111.382812 603.640625 1099.953125 C 601.234375 1093.902344 594.644531 1088.679688 587.585938 1087.285156 C 582.835938 1086.335938 575.835938 1086.652344 569.28125 1093.460938 C 567.855469 1094.949219 566.527344 1096.597656 565.195312 1098.210938 C 564.5625 1098.972656 563.929688 1099.761719 563.296875 1100.523438 C 562.660156 1101.25 561.773438 1101.695312 560.824219 1101.695312 C 559.875 1101.726562 558.957031 1101.3125 558.292969 1100.617188 C 557.40625 1099.667969 556.582031 1098.6875 555.757812 1097.734375 C 554.015625 1095.710938 552.371094 1093.808594 550.566406 1092.195312 C 546.636719 1088.585938 542.488281 1086.8125 538.054688 1086.8125 Z M 538.054688 1086.8125 " fill-opacity="1" fill-rule="nonzero"/><path fill="#f68cc3" d="M 559.875 1158.632812 C 556.804688 1155.941406 553.636719 1153.152344 550.21875 1150.460938 C 547.050781 1147.960938 543.789062 1145.554688 540.589844 1143.210938 C 537.773438 1141.121094 534.828125 1138.964844 532.039062 1136.8125 C 523.269531 1129.972656 518.550781 1123.007812 517.25 1114.964844 C 516.269531 1109.042969 517.1875 1103.246094 519.816406 1098.65625 C 522.792969 1093.460938 527.703125 1090.105469 534.382812 1088.648438 C 535.648438 1088.363281 536.851562 1088.234375 538.023438 1088.234375 C 542.140625 1088.234375 545.941406 1089.851562 549.648438 1093.207031 C 551.386719 1094.789062 553.003906 1096.660156 554.714844 1098.621094 C 555.535156 1099.574219 556.359375 1100.554688 557.246094 1101.503906 C 558.132812 1102.484375 559.433594 1103.054688 560.761719 1103.054688 C 560.792969 1103.054688 560.824219 1103.054688 560.855469 1103.054688 C 562.21875 1103.023438 563.515625 1102.421875 564.402344 1101.378906 C 565.070312 1100.617188 565.703125 1099.824219 566.335938 1099.035156 C 567.664062 1097.386719 568.964844 1095.804688 570.324219 1094.378906 C 574.21875 1090.324219 578.75 1088.265625 583.753906 1088.265625 C 592.398438 1088.265625 599.996094 1094.441406 602.339844 1100.425781 C 606.617188 1111.289062 604.621094 1121.167969 596.417969 1129.816406 C 592.492188 1133.929688 587.867188 1137.476562 582.992188 1141.246094 C 580.871094 1142.863281 578.6875 1144.539062 576.5625 1146.28125 C 572.164062 1149.859375 567.664062 1153.5 563.328125 1157.015625 C 562.410156 1157.746094 561.492188 1158.503906 560.605469 1159.234375 C 560.382812 1159.042969 560.128906 1158.820312 559.875 1158.632812 Z M 559.875 1158.632812 " fill-opacity="1" fill-rule="nonzero"/><path fill="#f68cc3" d="M 538.023438 1092.984375 C 540.90625 1092.984375 543.660156 1094.222656 546.480469 1096.753906 C 548 1098.148438 549.519531 1099.890625 551.136719 1101.757812 C 551.957031 1102.738281 552.84375 1103.722656 553.761719 1104.734375 C 555.570312 1106.730469 558.132812 1107.835938 560.792969 1107.835938 C 560.855469 1107.835938 560.921875 1107.835938 560.953125 1107.835938 C 563.675781 1107.773438 566.273438 1106.570312 568.046875 1104.449219 C 568.710938 1103.65625 569.375 1102.835938 570.007812 1102.042969 C 571.277344 1100.460938 572.511719 1098.972656 573.746094 1097.671875 C 576.722656 1094.570312 580.078125 1093.019531 583.722656 1093.019531 C 586.664062 1093.019531 589.800781 1094.03125 592.523438 1095.898438 C 595.058594 1097.609375 597.019531 1099.890625 597.90625 1102.136719 C 599.710938 1106.730469 600.21875 1111.097656 599.394531 1115.089844 C 598.574219 1119.046875 596.417969 1122.878906 592.9375 1126.523438 C 589.261719 1130.386719 584.796875 1133.804688 580.078125 1137.445312 C 577.925781 1139.09375 575.707031 1140.804688 573.554688 1142.578125 C 569.28125 1146.058594 564.910156 1149.574219 560.699219 1152.996094 C 558.292969 1150.90625 555.789062 1148.75 553.128906 1146.660156 C 549.898438 1144.097656 546.574219 1141.691406 543.375 1139.316406 C 540.433594 1137.160156 537.675781 1135.136719 534.953125 1132.980469 C 527.164062 1126.902344 523.015625 1120.917969 521.90625 1114.109375 C 521.113281 1109.261719 521.84375 1104.574219 523.933594 1100.933594 C 526.214844 1096.945312 530.078125 1094.347656 535.398438 1093.207031 C 536.316406 1093.082031 537.203125 1092.984375 538.023438 1092.984375 M 538.023438 1083.484375 C 536.535156 1083.484375 534.984375 1083.644531 533.402344 1083.992188 C 516.207031 1087.730469 510.410156 1102.484375 512.597656 1115.722656 C 514.304688 1126.238281 520.828125 1134.058594 529.15625 1140.550781 C 535.113281 1145.207031 541.351562 1149.480469 547.273438 1154.167969 C 551.988281 1157.902344 556.421875 1161.988281 560.476562 1165.441406 C 566.808594 1160.308594 573.207031 1155.148438 579.574219 1149.957031 C 586.414062 1144.382812 593.886719 1139.410156 599.871094 1133.109375 C 609.210938 1123.292969 611.871094 1111.605469 606.773438 1098.6875 C 603.574219 1090.609375 594.042969 1083.515625 583.753906 1083.515625 C 578.050781 1083.515625 572.097656 1085.703125 566.90625 1091.117188 C 564.6875 1093.429688 562.789062 1095.960938 560.792969 1098.335938 C 558.101562 1095.359375 555.726562 1092.257812 552.84375 1089.660156 C 548.539062 1085.828125 543.628906 1083.484375 538.023438 1083.484375 Z M 538.023438 1083.484375 " fill-opacity="1" fill-rule="nonzero"/><g clip-path="url(#e41235196e)"><path fill="#000000" d="M 538.023438 1083.484375 C 543.628906 1083.484375 548.539062 1085.828125 552.84375 1089.691406 C 555.726562 1092.289062 558.101562 1095.394531 560.792969 1098.371094 C 562.789062 1095.996094 564.71875 1093.460938 566.90625 1091.148438 C 572.097656 1085.734375 578.019531 1083.550781 583.753906 1083.550781 C 594.042969 1083.550781 603.574219 1090.609375 606.773438 1098.71875 C 611.871094 1111.636719 609.210938 1123.292969 599.871094 1133.140625 C 593.886719 1139.441406 586.414062 1144.445312 579.574219 1149.988281 C 573.207031 1155.179688 566.808594 1160.34375 560.476562 1165.472656 C 556.421875 1161.988281 551.988281 1157.902344 547.273438 1154.199219 C 541.351562 1149.511719 535.113281 1145.238281 529.15625 1140.582031 C 520.828125 1134.089844 514.304688 1126.269531 512.597656 1115.753906 C 510.410156 1102.484375 516.207031 1087.730469 533.402344 1083.992188 C 535.015625 1083.644531 536.535156 1083.484375 538.023438 1083.484375 M 538.023438 1078.734375 C 536.1875 1078.734375 534.289062 1078.957031 532.417969 1079.335938 C 523.109375 1081.363281 515.921875 1086.398438 511.613281 1093.9375 C 507.910156 1100.425781 506.578125 1108.441406 507.910156 1116.484375 C 508.828125 1122.121094 511.042969 1127.472656 514.527344 1132.378906 C 517.472656 1136.527344 521.304688 1140.421875 526.246094 1144.285156 C 529.125 1146.535156 532.101562 1148.71875 534.984375 1150.84375 C 538.089844 1153.121094 541.285156 1155.496094 544.328125 1157.871094 C 547.558594 1160.40625 550.628906 1163.128906 553.605469 1165.726562 C 554.902344 1166.867188 556.136719 1167.972656 557.375 1169.019531 C 558.261719 1169.777344 559.367188 1170.160156 560.476562 1170.160156 C 561.523438 1170.160156 562.597656 1169.8125 563.453125 1169.113281 C 565.386719 1167.5625 567.316406 1165.980469 569.28125 1164.394531 C 573.652344 1160.878906 578.148438 1157.238281 582.582031 1153.628906 C 584.605469 1151.980469 586.730469 1150.367188 588.789062 1148.785156 C 593.757812 1144.984375 598.890625 1141.023438 603.324219 1136.371094 C 614.152344 1124.96875 616.875 1111.351562 611.207031 1096.945312 C 609.277344 1092.035156 605.507812 1087.507812 600.632812 1084.152344 C 595.5625 1080.699219 589.578125 1078.765625 583.785156 1078.765625 C 576.214844 1078.765625 569.21875 1081.902344 563.515625 1087.824219 C 562.535156 1088.871094 561.585938 1089.914062 560.699219 1090.992188 C 559.242188 1089.34375 557.722656 1087.664062 556.011719 1086.144531 C 550.566406 1081.238281 544.515625 1078.734375 538.023438 1078.734375 Z M 538.023438 1078.734375 " fill-opacity="1" fill-rule="nonzero"/></g><path fill="#000000" d="M 560.507812 1168.765625 C 559.75 1168.765625 558.957031 1168.511719 558.355469 1167.972656 C 557.121094 1166.929688 555.886719 1165.851562 554.585938 1164.679688 C 551.578125 1162.050781 548.476562 1159.328125 545.246094 1156.765625 C 542.171875 1154.355469 538.976562 1151.980469 535.839844 1149.703125 C 532.957031 1147.582031 529.980469 1145.394531 527.132812 1143.179688 C 516.777344 1135.101562 510.980469 1126.300781 509.335938 1116.261719 C 508.035156 1108.503906 509.304688 1100.839844 512.847656 1094.632812 C 516.933594 1087.476562 523.804688 1082.664062 532.703125 1080.730469 C 540.8125 1078.957031 548.347656 1081.140625 555.0625 1087.191406 C 557.152344 1089.058594 558.957031 1091.148438 560.699219 1093.175781 C 561.902344 1091.71875 563.136719 1090.230469 564.5 1088.804688 C 571.210938 1081.808594 579.890625 1078.925781 588.882812 1080.699219 C 598.191406 1082.535156 606.617188 1089.28125 609.847656 1097.449219 C 615.292969 1111.289062 612.664062 1124.398438 602.246094 1135.355469 C 597.875 1139.949219 592.808594 1143.84375 587.902344 1147.613281 C 585.84375 1149.195312 583.6875 1150.84375 581.664062 1152.488281 C 577.261719 1156.097656 572.765625 1159.707031 568.394531 1163.253906 C 566.429688 1164.839844 564.5 1166.421875 562.566406 1167.972656 C 561.964844 1168.511719 561.238281 1168.765625 560.507812 1168.765625 Z M 538.054688 1086.8125 C 536.789062 1086.8125 535.460938 1086.96875 534.128906 1087.253906 C 527.132812 1088.773438 521.78125 1092.480469 518.613281 1097.957031 C 515.828125 1102.835938 514.84375 1108.945312 515.859375 1115.183594 C 517.21875 1123.609375 522.097656 1130.828125 531.183594 1137.921875 C 533.972656 1140.105469 536.917969 1142.261719 539.734375 1144.351562 C 542.902344 1146.660156 546.164062 1149.070312 549.296875 1151.570312 C 552.6875 1154.230469 555.855469 1157.015625 558.894531 1159.707031 C 559.433594 1160.183594 559.96875 1160.660156 560.507812 1161.132812 C 561.742188 1160.152344 562.945312 1159.140625 564.183594 1158.15625 C 568.519531 1154.640625 573.015625 1151 577.417969 1147.421875 C 579.507812 1145.710938 581.695312 1144.035156 583.816406 1142.417969 C 588.753906 1138.617188 593.410156 1135.070312 597.402344 1130.859375 C 606.046875 1121.769531 608.136719 1111.382812 603.640625 1099.953125 C 601.234375 1093.902344 594.644531 1088.679688 587.585938 1087.285156 C 582.835938 1086.335938 575.835938 1086.652344 569.28125 1093.460938 C 567.855469 1094.949219 566.527344 1096.597656 565.195312 1098.210938 C 564.5625 1098.972656 563.929688 1099.761719 563.296875 1100.523438 C 562.660156 1101.25 561.773438 1101.695312 560.824219 1101.695312 C 559.875 1101.726562 558.957031 1101.3125 558.292969 1100.617188 C 557.40625 1099.667969 556.582031 1098.6875 555.757812 1097.734375 C 554.015625 1095.710938 552.371094 1093.808594 550.566406 1092.195312 C 546.636719 1088.585938 542.488281 1086.8125 538.054688 1086.8125 Z M 538.054688 1086.8125 " fill-opacity="1" fill-rule="nonzero"/></svg>